<?xml version="1.0" standalone="no"?>
<!DOCTYPE svg PUBLIC "-//W3C//DTD SVG 20010904//EN"
 "http://www.w3.org/TR/2001/REC-SVG-20010904/DTD/svg10.dtd">
<svg version="1.0" xmlns="http://www.w3.org/2000/svg"
 width="3000.000000pt" height="3000.000000pt" viewBox="0 0 3000.000000 3000.000000"
 preserveAspectRatio="xMidYMid meet">

<g transform="translate(0.000000,3000.000000) scale(0.100000,-0.100000)"
fill="#000000" stroke="none">
<path d="M0 22500 l0 -7500 7499 0 c5990 0 7501 -3 7505 -12 5 -10 7 -10 12 0
6 13 84 17 84 4 0 -8 409 -26 509 -23 18 1 40 -4 47 -10 10 -8 18 -8 27 -1 7
6 135 11 347 13 410 4 10639 4 10730 1 171 -7 3195 11 3198 19 2 5 12 9 23 9
19 0 19 115 19 7500 l0 7500 -15000 0 -15000 0 0 -7500z m3930 105 l0 -4955
-1250 0 -1250 0 0 4955 0 4955 1250 0 1250 0 0 -4955z m4177 3845 c359 -608
714 -1206 787 -1330 74 -124 150 -256 169 -295 79 -160 113 -297 126 -519 4
-67 10 -114 13 -106 3 8 15 78 27 155 30 185 82 385 134 515 32 80 225 413
807 1398 l764 1292 1359 0 1359 0 -14 -22 c-8 -13 -689 -1060 -1514 -2328
-824 -1268 -1499 -2314 -1498 -2325 0 -14 3042 -4816 3299 -5208 l17 -27
-1428 0 -1429 0 -798 1430 c-439 786 -820 1476 -846 1532 -58 124 -101 251
-140 418 -30 127 -74 374 -87 488 -10 94 -24 85 -24 -15 0 -212 -48 -472 -122
-661 -63 -161 -110 -248 -963 -1776 l-790 -1416 -1428 0 c-1140 0 -1427 3
-1421 13 4 6 752 1184 1661 2616 910 1433 1653 2610 1651 2616 -2 6 -681 1053
-1509 2326 -828 1273 -1509 2320 -1513 2327 -6 10 263 12 1345 10 l1353 -3
653 -1105z m10105 -2165 c451 -59 837 -259 1174 -606 99 -102 192 -223 255
-330 99 -170 286 -576 272 -590 -6 -6 -2084 -1073 -2418 -1241 l-60 -31 50
-44 c120 -106 280 -197 400 -228 85 -22 244 -20 339 5 182 46 387 198 526 388
13 17 28 32 33 32 12 0 827 -503 827 -510 0 -15 -330 -373 -390 -421 -269
-220 -648 -381 -1022 -434 -121 -17 -425 -20 -548 -5 -457 57 -845 246 -1170
570 -319 319 -503 700 -560 1155 -15 115 -15 413 -1 530 51 410 199 757 453
1060 330 394 756 632 1248 700 134 18 454 18 592 0z m4202 -55 c303 -65 486
-157 696 -349 l70 -63 0 186 0 186 595 0 595 0 0 -1752 c0 -964 -5 -1834 -10
-1933 -5 -99 -18 -230 -30 -291 -20 -115 -74 -282 -115 -364 -51 -101 -153
-238 -249 -335 -279 -280 -623 -456 -1066 -545 -244 -49 -326 -55 -710 -55
-387 1 -466 7 -750 66 -278 57 -399 93 -585 176 -79 36 -369 185 -383 198 -4
3 455 815 469 829 5 6 55 -21 123 -67 193 -128 334 -190 568 -247 198 -48 351
-63 592 -57 139 4 235 11 281 21 298 68 506 210 601 411 59 125 66 166 71 430
l4 240 -33 -40 c-213 -256 -335 -334 -656 -415 -211 -53 -303 -63 -532 -57
-155 4 -230 11 -305 27 -424 90 -752 315 -1000 685 -162 241 -252 493 -307
855 -20 134 -17 587 5 730 65 416 224 763 470 1028 275 296 567 453 962 517
138 22 498 14 629 -15z m4780 0 c303 -65 486 -157 696 -349 l70 -63 0 186 0
186 590 0 590 0 -2 -1932 -3 -1933 -22 -111 c-24 -117 -79 -286 -118 -364 -51
-101 -153 -238 -249 -335 -279 -280 -623 -456 -1066 -545 -244 -49 -326 -55
-710 -55 -387 1 -466 7 -750 66 -278 57 -399 93 -585 176 -79 36 -369 185
-383 198 -4 3 455 815 469 829 5 6 55 -21 123 -67 193 -128 334 -190 568 -247
198 -48 351 -63 592 -57 139 4 235 11 281 21 298 68 506 210 601 411 59 125
66 166 71 430 l4 240 -33 -40 c-213 -256 -335 -334 -656 -415 -211 -53 -303
-63 -532 -57 -155 4 -230 11 -305 27 -424 90 -752 315 -1000 685 -162 241
-252 493 -307 855 -20 134 -17 587 5 730 65 416 224 763 470 1028 275 296 567
453 962 517 138 22 498 14 629 -15z"/>
<path d="M17774 23396 c-185 -42 -351 -142 -504 -302 -164 -172 -245 -342
-265 -554 -7 -72 13 -241 33 -276 5 -9 218 96 806 397 440 225 803 412 808
417 12 12 -85 125 -152 176 -75 56 -160 97 -260 127 -96 28 -369 37 -466 15z"/>
<path d="M22231 23280 c-164 -40 -330 -157 -437 -306 -60 -84 -120 -215 -152
-332 -25 -92 -26 -109 -27 -347 0 -231 2 -257 24 -340 77 -296 260 -506 516
-593 75 -25 91 -27 255 -26 165 0 180 2 255 28 257 88 391 246 451 531 34 165
27 753 -11 915 -54 227 -241 406 -491 470 -101 26 -278 26 -383 0z"/>
<path d="M27011 23280 c-164 -40 -330 -157 -437 -306 -60 -84 -120 -215 -152
-332 -25 -92 -26 -109 -27 -347 0 -231 2 -257 24 -340 77 -296 260 -506 516
-593 75 -25 91 -27 255 -26 165 0 180 2 255 28 257 88 391 246 451 531 34 165
27 753 -11 915 -54 227 -241 406 -491 470 -101 26 -278 26 -383 0z"/>
<path d="M15037 14963 c-4 -3 -7 -23 -7 -44 0 -21 -7 -44 -15 -53 -13 -13 -15
-153 -15 -1144 l0 -1130 30 -12 c33 -13 269 -6 350 12 25 5 70 13 100 18 91
14 184 36 207 48 12 7 35 12 51 12 16 0 43 7 58 15 16 8 36 15 44 15 8 0 47
11 85 25 39 13 79 25 90 25 12 0 25 4 30 9 6 5 53 25 105 46 52 20 129 53 170
72 41 19 84 39 95 44 11 5 27 13 35 17 8 5 26 15 40 22 14 7 45 24 70 37 63
33 226 131 358 215 15 9 41 24 59 33 18 9 37 23 44 31 6 8 15 14 20 14 4 0 27
13 51 29 24 16 61 39 83 51 22 12 56 31 75 42 19 12 76 42 125 68 124 64 126
65 165 82 19 8 51 22 70 30 19 9 51 22 70 28 19 7 49 19 65 25 57 23 190 67
228 75 21 4 44 13 50 19 6 6 26 11 44 11 18 0 52 7 76 15 24 8 63 17 88 20 24
2 71 9 104 14 182 29 255 34 425 32 167 -2 431 -24 454 -38 5 -4 32 -8 60 -10
28 -2 70 -11 94 -19 23 -7 60 -14 80 -14 21 0 47 -7 58 -15 10 -8 30 -15 44
-15 24 -1 113 -28 135 -42 6 -3 26 -9 45 -13 19 -4 44 -14 55 -21 11 -8 25
-14 32 -14 20 0 443 -203 511 -245 9 -6 44 -25 77 -43 33 -18 76 -42 95 -53
19 -12 49 -29 65 -38 17 -9 68 -41 115 -72 47 -31 117 -75 155 -98 39 -23 77
-46 85 -51 8 -5 49 -26 90 -47 41 -21 77 -41 80 -44 3 -3 37 -20 75 -38 39
-18 77 -37 85 -42 8 -5 22 -12 30 -15 8 -3 29 -11 45 -18 116 -51 180 -76 194
-76 9 0 21 -4 27 -9 8 -9 53 -22 134 -40 19 -4 45 -13 57 -19 12 -7 37 -12 55
-12 18 0 53 -6 78 -14 75 -25 185 -47 236 -48 27 0 61 -6 75 -14 15 -7 28 -11
30 -9 2 2 72 0 154 -5 158 -8 480 4 499 19 6 5 38 11 71 14 80 7 181 26 230
43 23 8 56 14 76 14 19 0 39 4 45 9 9 9 55 23 137 40 21 5 44 14 50 20 6 6 19
11 29 11 9 0 32 6 50 14 18 8 53 22 78 31 25 10 54 21 65 26 11 5 31 13 45 19
14 5 32 14 40 19 8 5 72 36 141 70 69 34 141 72 160 83 19 12 57 34 85 48 44
23 161 93 252 152 15 10 34 21 42 25 8 3 29 17 46 30 17 13 34 23 37 23 3 0
23 12 44 26 21 14 47 30 58 35 11 5 34 18 50 29 17 11 37 22 45 26 8 3 22 9
30 14 8 5 85 44 170 86 85 42 163 80 172 85 39 20 196 79 210 79 8 0 18 3 22
7 9 9 116 43 136 43 8 0 28 7 44 15 15 8 42 15 59 15 17 0 49 6 72 14 22 8 90
21 150 30 61 9 144 21 185 27 116 18 473 11 632 -12 73 -11 160 -23 193 -27
33 -4 70 -13 82 -20 12 -7 37 -12 55 -12 18 0 42 -7 52 -15 11 -8 30 -15 42
-15 13 0 33 -4 46 -9 13 -6 57 -20 98 -32 41 -12 84 -27 95 -34 11 -7 46 -20
77 -29 32 -10 60 -22 64 -27 3 -5 16 -9 29 -9 13 0 26 -4 30 -9 6 -11 150 -81
165 -81 6 0 10 -4 10 -9 0 -5 12 -14 28 -20 31 -12 132 -67 203 -111 27 -16
54 -30 59 -30 6 0 10 -4 10 -9 0 -5 10 -13 21 -16 12 -4 65 -34 118 -67 53
-33 105 -65 115 -71 31 -19 150 -95 162 -104 21 -16 50 -33 99 -57 28 -13 67
-36 88 -50 21 -14 41 -26 45 -26 6 0 100 -44 132 -62 21 -11 102 -43 240 -93
109 -39 200 -65 228 -65 9 0 30 -7 46 -15 15 -8 49 -15 75 -15 26 0 56 -6 67
-14 11 -8 51 -17 89 -21 38 -3 74 -9 80 -13 5 -4 37 -10 70 -13 33 -4 80 -12
105 -17 25 -6 83 -13 130 -16 47 -3 95 -8 108 -12 l22 -6 0 1186 0 1186 -22 0
c-13 0 -90 2 -173 4 -132 4 -1001 5 -2502 2 -259 -1 -474 -4 -478 -7 -3 -4
-19 -2 -36 4 -22 9 -34 9 -49 -1 -13 -8 -27 -9 -38 -4 -9 5 -46 8 -82 6 -153
-5 -1602 -4 -1610 1 -11 7 -5289 7 -5300 0 -5 -3 -615 -4 -1357 -3 -1506 3
-1892 3 -2493 -1 -514 -3 -779 5 -801 25 -9 8 -19 11 -22 7z"/>
<path d="M12686 12305 c-15 -8 -35 -15 -43 -15 -8 0 -56 -20 -106 -45 -51 -25
-119 -50 -152 -56 -56 -9 -67 -16 -132 -77 -111 -106 -163 -222 -163 -365 0
-54 5 -77 25 -112 13 -24 36 -79 51 -122 14 -43 32 -87 38 -98 7 -11 21 -42
31 -70 10 -27 22 -54 26 -60 3 -5 12 -34 18 -64 6 -29 25 -86 41 -125 17 -39
30 -77 30 -86 0 -8 11 -51 25 -95 14 -44 25 -90 25 -102 0 -12 9 -37 19 -55
19 -31 44 -140 71 -308 6 -41 18 -93 25 -115 31 -99 65 -250 65 -293 0 -14 6
-53 14 -86 16 -71 41 -217 55 -331 6 -44 15 -114 21 -155 5 -41 12 -118 15
-170 4 -52 12 -138 20 -190 46 -314 55 -406 65 -670 6 -135 15 -269 20 -299
11 -62 13 -125 4 -158 -5 -17 -14 -23 -35 -23 -23 0 -36 10 -64 49 -32 45 -94
101 -110 101 -4 0 -37 20 -74 44 -177 117 -454 226 -686 270 -400 77 -542 77
-995 0 -177 -30 -296 -61 -362 -95 -9 -5 -35 -12 -57 -15 -32 -5 -42 -3 -47 9
-8 23 -33 133 -45 207 -6 36 -17 79 -23 95 -7 17 -23 73 -35 125 -12 52 -29
120 -38 150 -9 30 -20 69 -24 85 -5 17 -17 59 -28 95 -11 36 -23 88 -27 115
-4 28 -11 61 -16 75 -6 14 -30 104 -54 200 -24 96 -50 180 -57 185 -13 10 -22
36 -52 150 -9 33 -27 79 -40 102 -13 23 -33 73 -45 110 -55 165 -202 489 -302
662 -123 215 -210 307 -374 398 -62 33 -123 64 -135 67 -79 22 -106 31 -119
42 -15 12 -98 41 -245 83 -197 57 -257 73 -301 81 -27 5 -69 13 -94 19 -95 21
-508 64 -427 44 9 -3 17 -10 17 -16 0 -9 -76 -12 -293 -13 -160 -1 -350 -6
-422 -12 -199 -17 -489 -58 -598 -87 -54 -14 -106 -25 -117 -25 -10 0 -56 -11
-102 -25 -46 -14 -99 -30 -118 -36 -19 -6 -55 -18 -80 -28 -25 -11 -85 -33
-135 -51 -83 -30 -129 -49 -241 -101 -22 -11 -44 -19 -48 -19 -4 0 -22 -11
-39 -23 -18 -13 -48 -30 -67 -37 -19 -7 -42 -19 -51 -27 -8 -7 -19 -13 -23
-13 -4 0 -33 -17 -64 -38 -32 -22 -82 -54 -112 -72 -30 -19 -84 -57 -120 -86
-82 -65 -321 -283 -421 -383 -168 -168 -375 -446 -404 -541 -4 -14 -16 -45
-28 -70 -34 -76 -45 -326 -18 -425 6 -22 11 -60 11 -84 0 -25 4 -58 9 -75 5
-17 16 -65 25 -106 19 -98 56 -225 95 -330 17 -47 41 -112 52 -145 11 -33 25
-65 30 -71 5 -6 18 -42 28 -80 10 -38 29 -96 43 -129 14 -33 36 -91 48 -130
12 -38 43 -122 68 -185 24 -63 58 -155 73 -204 16 -49 40 -113 54 -142 14 -30
30 -76 35 -104 5 -27 20 -71 33 -97 14 -26 30 -72 36 -102 6 -30 15 -59 20
-65 4 -6 21 -47 36 -91 15 -44 38 -105 50 -135 26 -61 59 -159 69 -204 4 -16
21 -49 38 -72 26 -36 30 -49 25 -80 -3 -20 -8 -39 -11 -42 -3 -2 -37 -4 -75
-3 -153 4 -229 -38 -317 -171 l-44 -67 0 -101 c0 -60 8 -137 19 -193 11 -50
22 -110 26 -132 11 -65 36 -133 51 -139 8 -3 14 -17 14 -31 0 -14 4 -33 10
-43 5 -9 16 -44 24 -77 23 -98 55 -219 65 -240 23 -53 35 -85 51 -140 25 -81
113 -332 133 -375 9 -19 30 -69 48 -110 17 -41 45 -104 61 -139 16 -35 32 -78
35 -95 4 -17 19 -51 35 -75 15 -25 28 -53 28 -63 0 -10 12 -41 26 -69 28 -57
29 -106 1 -123 -16 -9 -25 -4 -58 34 -22 25 -53 72 -69 105 -16 33 -52 85 -80
115 -44 48 -85 107 -175 254 -11 18 -33 48 -48 66 -16 18 -42 60 -58 92 -17
33 -47 78 -68 101 -34 37 -52 65 -110 176 -7 14 -34 57 -60 94 -25 38 -64 100
-86 138 -49 84 -129 202 -167 247 -15 18 -28 38 -28 45 0 11 -130 228 -252
420 -54 86 -51 81 -83 147 -15 30 -38 69 -51 87 -24 32 -49 76 -114 198 -21
39 -52 93 -69 120 -17 28 -40 68 -52 90 -11 22 -33 60 -49 85 -38 59 -113 181
-123 200 -4 8 -21 35 -37 60 -16 25 -38 62 -50 82 -11 20 -24 40 -30 43 -6 4
-29 43 -51 88 -22 45 -48 96 -58 112 -11 17 -32 55 -47 85 -15 30 -33 59 -41
63 -7 4 -13 16 -13 26 0 10 -9 26 -20 36 -11 10 -22 26 -25 36 -3 10 -18 31
-33 47 -15 16 -36 47 -47 68 -11 21 -31 57 -44 79 -14 22 -32 54 -40 71 -48
93 -261 328 -326 360 -16 8 -64 34 -105 59 -41 24 -91 47 -110 51 -19 4 -52
15 -73 26 -32 16 -215 51 -257 49 -131 -7 -262 -23 -330 -40 -165 -40 -294
-83 -376 -125 -59 -30 -79 -32 -88 -11 -3 8 -11 15 -17 15 -19 0 -139 -61
-139 -70 0 -4 -16 -15 -35 -24 -19 -9 -35 -21 -35 -26 0 -6 -8 -10 -17 -10
-46 0 -303 -291 -303 -341 0 -9 -7 -22 -15 -29 -8 -7 -15 -19 -15 -26 0 -8 -4
-14 -9 -14 -8 0 -12 -12 -27 -92 -4 -18 -12 -39 -18 -47 -17 -22 -38 -176 -38
-286 0 -89 17 -224 35 -265 3 -8 11 -37 16 -65 19 -94 24 -110 42 -136 10 -15
23 -37 29 -50 5 -13 14 -31 20 -39 5 -8 30 -69 55 -135 25 -66 50 -128 55
-137 6 -10 14 -26 18 -35 9 -18 16 -31 67 -125 34 -65 33 -94 -7 -118 -28 -17
-44 -18 -125 -13 -87 6 -95 5 -117 -16 -20 -19 -34 -22 -92 -21 -88 2 -144 -8
-169 -30 -20 -17 -34 -25 -131 -74 -28 -14 -62 -41 -75 -58 -13 -18 -36 -44
-50 -58 -45 -43 -59 -87 -70 -219 -12 -134 -3 -248 28 -361 8 -30 17 -66 20
-80 3 -14 15 -47 28 -75 12 -27 26 -61 30 -75 4 -14 11 -29 14 -35 4 -5 14
-30 21 -55 8 -25 26 -61 40 -80 33 -44 60 -102 60 -129 0 -14 11 -28 30 -39
20 -11 35 -32 46 -62 18 -53 78 -171 111 -219 13 -19 23 -37 23 -42 0 -14 65
-114 83 -127 9 -7 17 -24 17 -38 0 -15 14 -39 35 -60 19 -19 35 -39 35 -44 0
-5 6 -15 13 -22 6 -7 21 -29 31 -48 16 -30 90 -135 106 -150 3 -3 18 -25 34
-50 16 -24 40 -56 53 -70 13 -14 26 -33 29 -42 3 -10 9 -18 14 -18 4 0 10 -8
13 -18 7 -20 87 -134 122 -174 14 -15 31 -42 39 -60 8 -18 32 -51 55 -73 22
-22 40 -45 41 -52 0 -6 18 -33 40 -58 22 -25 40 -50 40 -54 0 -4 34 -42 75
-84 41 -41 75 -79 75 -84 0 -5 12 -22 28 -39 15 -16 51 -60 80 -97 30 -37 58
-67 63 -67 5 0 9 -6 9 -13 0 -22 271 -308 305 -321 8 -3 15 -10 15 -16 0 -14
58 -71 90 -89 14 -7 48 -40 75 -72 28 -33 79 -81 115 -106 36 -26 76 -59 91
-73 47 -47 263 -210 369 -280 57 -37 167 -115 223 -157 23 -18 78 -57 122 -87
44 -31 98 -68 120 -84 22 -16 67 -44 100 -62 33 -18 93 -55 134 -82 41 -27
105 -65 144 -84 39 -19 78 -40 86 -47 20 -17 117 -75 201 -119 36 -19 83 -45
105 -56 22 -12 76 -38 120 -58 160 -73 231 -105 255 -118 14 -7 59 -26 100
-41 41 -15 89 -33 107 -41 17 -8 36 -14 43 -14 6 0 35 -11 63 -24 29 -13 95
-36 147 -51 52 -15 136 -42 185 -60 97 -35 128 -44 305 -82 186 -40 321 -62
380 -63 30 0 102 -7 160 -15 126 -18 515 -21 640 -5 47 6 137 15 200 20 159
13 324 44 393 73 21 9 62 19 90 23 52 6 237 56 259 70 7 5 30 11 53 15 49 9
153 47 220 80 28 14 68 28 89 32 22 4 99 36 170 71 216 107 278 125 322 91 10
-8 25 -15 32 -15 11 0 109 -47 207 -99 22 -12 74 -37 115 -56 41 -20 89 -44
105 -54 17 -10 55 -27 85 -38 30 -12 82 -37 114 -57 33 -20 64 -36 69 -36 5 0
41 -16 80 -36 40 -21 128 -65 197 -99 69 -34 133 -71 142 -81 9 -11 24 -44 32
-74 8 -30 23 -77 35 -103 12 -27 21 -58 21 -68 0 -11 5 -30 12 -42 6 -12 15
-40 19 -62 18 -94 33 -140 58 -176 l26 -38 552 -1 552 0 -2 102 c-3 99 -5 106
-40 166 -20 35 -37 70 -37 78 0 8 -11 40 -25 70 -14 30 -25 64 -25 75 0 11
-15 50 -34 87 -18 37 -41 89 -50 115 -9 27 -30 77 -46 112 -37 80 -41 157 -10
190 20 21 52 75 85 145 9 19 23 48 31 63 8 16 14 35 14 42 0 7 15 33 33 57 18
24 43 68 56 98 13 30 32 61 42 68 11 7 19 22 19 33 0 10 14 38 30 61 17 22 30
47 30 53 0 7 6 18 14 24 8 7 26 38 41 69 15 31 43 78 62 104 19 26 39 65 45
85 5 21 18 47 28 58 11 11 26 36 35 55 9 19 25 51 35 70 11 19 19 42 20 51 0
9 6 21 13 27 7 6 35 55 62 109 60 122 80 159 133 249 22 39 49 92 59 118 11
25 30 54 43 63 14 10 35 29 46 43 12 14 48 36 80 49 33 13 82 33 109 46 28 12
70 30 95 40 25 9 53 21 62 26 10 5 24 9 31 9 7 0 47 22 88 49 41 26 106 65
144 85 38 21 87 52 109 70 23 18 57 39 76 46 19 8 62 38 94 67 33 29 63 53 68
53 36 0 427 382 523 511 11 15 61 81 112 147 51 67 112 152 137 190 59 93 326
623 326 648 0 11 32 85 50 114 4 8 15 35 24 60 8 25 35 101 59 170 24 69 48
145 52 170 4 25 10 50 14 55 4 6 13 35 20 65 7 30 21 82 32 115 20 64 52 189
76 295 8 36 21 88 28 115 8 28 19 82 25 120 11 67 22 124 55 266 8 36 19 99
25 140 5 41 14 88 20 103 5 15 10 47 10 71 0 23 9 90 20 146 29 148 47 311 66
569 21 299 14 1356 -10 1573 -9 76 -18 148 -21 160 -3 12 -12 69 -20 127 -8
58 -21 148 -30 200 -8 52 -20 124 -25 160 -5 36 -17 94 -25 130 -9 36 -22 99
-30 140 -8 41 -21 100 -30 130 -8 30 -15 66 -15 80 0 15 -6 46 -14 71 -8 24
-37 127 -65 229 -28 102 -56 199 -62 215 -6 17 -19 62 -29 100 -11 39 -30 95
-43 125 -13 30 -32 78 -41 105 -43 125 -74 206 -89 228 -9 14 -19 38 -23 53
-4 16 -13 38 -20 49 -6 11 -15 36 -19 55 -4 19 -16 46 -26 59 -11 13 -19 29
-19 36 0 6 -8 20 -19 29 -10 9 -27 38 -36 64 -10 26 -24 56 -32 67 -7 11 -13
28 -13 39 0 10 -10 33 -23 50 -13 17 -35 61 -51 98 -15 36 -36 74 -47 84 -10
9 -19 23 -19 29 0 27 -45 113 -84 159 -65 77 -144 169 -165 191 -18 19 -78 54
-161 95 -78 39 -213 51 -264 25z m142 -265 c17 0 32 -6 36 -15 3 -8 13 -15 23
-15 22 -1 53 -23 53 -39 0 -6 5 -11 10 -11 16 0 46 -34 61 -68 8 -18 19 -32
26 -32 6 0 23 -26 38 -57 42 -92 59 -123 67 -123 5 0 8 -6 8 -14 0 -8 7 -16
15 -20 9 -3 15 -18 15 -34 0 -16 7 -35 15 -42 8 -7 15 -21 15 -31 0 -11 5 -19
10 -19 6 0 10 -7 10 -15 0 -8 4 -15 8 -15 9 0 42 -70 42 -88 0 -7 3 -12 8 -12
4 0 15 -21 25 -48 25 -64 50 -116 59 -123 5 -3 15 -29 24 -59 9 -29 33 -87 55
-128 21 -41 39 -84 39 -96 0 -12 4 -26 9 -31 4 -6 16 -35 26 -65 9 -30 21 -63
26 -72 5 -10 9 -25 9 -33 0 -8 4 -15 9 -15 6 0 13 -21 16 -47 4 -27 16 -73 27
-103 11 -30 23 -68 28 -85 14 -48 51 -157 66 -193 8 -18 14 -45 14 -60 0 -16
4 -32 9 -38 11 -10 23 -56 52 -193 11 -52 23 -99 28 -105 5 -6 11 -27 14 -46
3 -19 11 -66 17 -104 6 -39 16 -78 21 -87 5 -10 9 -37 9 -61 0 -24 7 -52 15
-62 9 -11 15 -42 15 -70 1 -28 5 -71 11 -96 5 -25 12 -63 14 -85 2 -22 6 -53
9 -70 20 -135 44 -365 66 -645 12 -146 11 -765 -1 -975 -16 -270 -44 -560 -58
-610 -5 -16 -10 -57 -11 -89 0 -33 -4 -64 -7 -69 -3 -5 -11 -50 -19 -100 -7
-51 -20 -130 -28 -177 -9 -47 -21 -116 -26 -154 -6 -38 -14 -74 -19 -80 -5 -6
-11 -33 -14 -61 -10 -90 -27 -179 -37 -189 -6 -6 -10 -28 -10 -51 0 -23 -7
-50 -15 -61 -8 -10 -15 -36 -15 -56 0 -20 -4 -40 -10 -43 -5 -3 -10 -24 -10
-46 0 -21 -4 -39 -10 -39 -5 0 -10 -10 -10 -23 0 -13 -7 -32 -15 -43 -8 -10
-15 -32 -15 -49 0 -16 -10 -57 -21 -90 -12 -33 -29 -93 -39 -133 -10 -40 -23
-79 -28 -85 -5 -7 -12 -29 -16 -49 -4 -21 -12 -38 -18 -38 -6 0 -9 -3 -6 -6 8
-8 -33 -147 -69 -231 -7 -17 -13 -40 -13 -52 0 -12 -4 -21 -10 -21 -5 0 -10
-11 -10 -24 0 -14 -5 -28 -10 -31 -13 -8 -40 -72 -40 -96 0 -9 -25 -66 -55
-125 -30 -60 -55 -112 -55 -117 0 -5 -10 -23 -22 -40 -13 -18 -31 -48 -40 -67
-10 -19 -21 -42 -26 -50 -19 -33 -32 -57 -53 -98 -13 -23 -31 -51 -41 -62 -10
-10 -18 -21 -18 -24 0 -2 -13 -18 -30 -36 -16 -18 -30 -38 -30 -45 0 -7 -11
-23 -25 -36 -13 -13 -25 -27 -25 -31 0 -11 -88 -129 -110 -148 -11 -10 -20
-23 -20 -29 0 -7 -4 -9 -10 -6 -5 3 -10 0 -10 -7 -1 -15 -152 -168 -167 -168
-12 0 -97 -91 -106 -113 -3 -9 -13 -17 -21 -17 -8 0 -30 -18 -47 -40 -18 -22
-38 -40 -45 -40 -6 0 -14 -6 -17 -14 -3 -8 -22 -20 -41 -27 -20 -7 -36 -19
-36 -26 0 -7 -10 -13 -22 -13 -32 0 -44 -10 -52 -42 -6 -26 -9 -27 -59 -25
-48 2 -52 0 -55 -22 -4 -28 -40 -60 -91 -80 -20 -8 -53 -25 -73 -38 -21 -13
-43 -23 -50 -23 -7 0 -19 -9 -26 -20 -6 -11 -22 -20 -35 -19 -37 0 -81 -13
-90 -27 -4 -8 -16 -14 -26 -14 -10 0 -24 -7 -31 -15 -7 -8 -28 -15 -47 -15
-19 0 -41 -7 -49 -15 -9 -8 -28 -15 -44 -15 -16 0 -32 -4 -35 -10 -3 -5 -21
-10 -39 -10 -19 0 -74 -12 -122 -26 -49 -14 -129 -30 -179 -35 -97 -9 -172
-20 -304 -42 -53 -9 -98 -11 -125 -6 -22 5 -45 8 -50 9 -12 0 9 151 27 188 13
28 56 52 91 52 13 0 38 11 54 25 17 14 41 25 55 25 13 0 30 7 37 15 7 8 18 15
25 15 8 0 26 6 42 14 15 8 45 22 65 31 20 8 40 20 43 25 3 6 15 10 26 10 11 0
22 7 25 15 4 8 12 15 19 15 6 0 22 9 35 20 13 11 33 20 45 20 12 0 39 11 60
25 20 14 67 40 104 58 66 32 91 49 91 63 0 10 33 33 49 34 7 0 28 12 46 27 17
16 42 35 54 43 13 8 35 25 49 37 15 13 30 23 34 23 4 0 31 25 60 55 29 30 59
55 65 55 7 0 13 4 13 10 0 5 34 44 75 86 41 42 75 79 75 83 0 4 24 31 53 62
28 31 63 70 77 88 14 18 35 44 48 59 13 15 49 61 80 102 31 41 62 81 69 88 7
7 13 18 13 23 0 5 11 22 25 37 14 15 25 31 25 37 0 6 11 22 25 37 14 15 25 34
25 41 0 8 6 17 13 20 6 2 21 28 32 56 11 28 23 51 27 51 4 0 8 8 8 18 0 19 28
83 40 92 10 7 34 52 36 68 3 19 57 124 71 140 7 7 12 29 11 48 -1 19 4 40 10
46 7 7 12 20 12 30 0 9 6 32 14 50 8 18 22 51 31 73 9 22 20 48 25 57 6 10 10
38 10 62 0 25 5 48 10 51 6 3 10 23 10 44 0 22 6 44 15 51 8 7 15 28 15 47 0
44 28 143 46 164 10 11 12 29 8 62 -5 32 -3 52 6 62 8 10 14 47 15 95 1 59 5
84 18 98 14 15 17 37 15 125 -1 63 3 111 9 119 6 7 14 72 17 143 9 171 9 181
7 380 -1 94 -1 188 0 210 2 22 2 76 1 120 -2 44 0 108 4 143 4 44 3 71 -6 88
-11 19 -11 35 -2 75 15 62 16 139 2 139 -6 0 -10 39 -10 98 0 53 -5 149 -10
212 -6 63 -11 243 -12 400 0 207 -4 300 -14 340 -8 30 -14 102 -14 160 0 58
-5 121 -11 140 -6 19 -11 93 -11 165 1 94 -3 134 -12 145 -17 19 -39 168 -41
275 0 44 -6 89 -13 100 -12 22 -42 216 -42 278 0 20 -4 37 -9 37 -5 0 -12 30
-16 68 -3 37 -10 75 -15 84 -6 10 -10 49 -10 87 0 52 -4 70 -15 75 -11 4 -15
21 -15 65 0 33 -4 63 -10 66 -5 3 -10 21 -10 38 0 18 -14 68 -31 112 -17 44
-35 96 -41 115 -5 19 -15 55 -23 80 -7 25 -18 79 -25 120 -7 41 -19 97 -26
124 -8 27 -14 69 -14 93 0 24 -4 43 -10 43 -5 0 -13 18 -16 40 -4 22 -10 40
-15 40 -5 0 -9 10 -9 23 0 12 -12 45 -25 72 -14 28 -25 63 -25 79 0 16 -6 37
-13 45 -7 9 -21 41 -31 71 -10 30 -23 59 -27 64 -5 6 -9 17 -9 26 0 8 -11 27
-25 42 -14 15 -25 39 -25 53 0 14 -4 25 -9 25 -12 0 -41 58 -41 82 0 10 5 18
10 18 6 0 10 12 10 26 0 22 52 84 71 84 3 0 12 11 19 25 7 14 19 25 27 25 7 0
13 7 13 15 0 11 12 15 49 15 28 0 52 4 55 9 3 4 26 11 52 14 26 2 49 9 53 14
11 16 66 30 83 21 9 -4 30 -8 46 -8z m-4893 -891 c72 -6 154 -10 183 -9 33 1
63 -5 76 -14 13 -8 55 -16 97 -18 66 -4 135 -22 149 -39 3 -3 26 -9 53 -13 26
-4 47 -11 47 -17 0 -5 20 -9 44 -9 29 0 46 -5 50 -15 4 -10 18 -14 49 -13 35
2 49 -3 73 -25 16 -15 40 -27 53 -27 21 0 57 -9 106 -26 6 -2 17 -8 25 -13 8
-5 33 -17 55 -27 22 -9 42 -20 45 -23 7 -8 41 -29 65 -40 41 -18 185 -172 185
-199 0 -7 18 -37 40 -67 22 -30 40 -61 40 -69 0 -18 43 -98 76 -143 13 -17 24
-43 24 -57 0 -14 4 -27 9 -31 5 -3 12 -19 16 -35 4 -17 21 -58 39 -93 33 -64
66 -154 66 -181 0 -9 4 -16 9 -16 9 0 41 -88 41 -115 0 -9 7 -23 15 -31 8 -9
15 -24 15 -35 0 -10 5 -19 10 -19 6 0 10 -11 10 -24 0 -13 7 -37 15 -52 8 -16
15 -39 15 -51 0 -13 4 -23 9 -23 5 0 12 -15 16 -32 7 -37 21 -78 41 -125 8
-17 14 -43 14 -57 0 -15 4 -34 9 -44 19 -39 34 -90 39 -132 2 -25 11 -54 18
-65 8 -11 14 -30 14 -42 0 -13 5 -23 10 -23 6 0 10 -20 10 -44 0 -24 5 -46 11
-48 6 -2 14 -27 17 -56 2 -29 9 -55 13 -58 5 -3 9 -18 9 -34 0 -16 4 -31 9
-34 5 -4 12 -24 16 -46 4 -22 11 -42 15 -45 5 -3 11 -31 15 -63 3 -31 10 -66
15 -77 14 -31 30 -98 30 -125 0 -14 7 -38 15 -54 8 -15 15 -38 15 -50 0 -24
25 -117 40 -151 8 -18 19 -77 36 -195 3 -19 9 -44 15 -55 21 -47 39 -110 39
-140 0 -19 4 -35 9 -37 5 -1 11 -32 14 -68 2 -36 9 -78 15 -95 23 -62 42 -135
42 -158 0 -14 8 -42 17 -63 10 -22 23 -79 30 -129 17 -128 30 -196 41 -226 15
-37 32 -129 43 -229 24 -207 48 -443 68 -663 5 -59 13 -113 18 -120 7 -10 12
-99 24 -362 5 -122 32 -501 36 -508 9 -16 3 -620 -8 -686 -6 -36 -10 -131 -11
-210 0 -97 -4 -156 -14 -183 -10 -29 -14 -90 -14 -212 0 -124 -4 -178 -14
-197 -8 -16 -14 -66 -14 -138 -1 -62 -4 -117 -8 -122 -3 -5 -9 -78 -15 -162
-15 -249 -49 -533 -69 -582 -25 -60 -29 -71 -43 -106 -11 -27 -27 -42 -60 -58
-25 -12 -48 -28 -51 -36 -3 -8 -29 -26 -58 -40 -29 -14 -75 -38 -103 -54 -50
-30 -63 -37 -140 -80 -22 -12 -53 -31 -70 -41 -16 -10 -37 -19 -46 -19 -9 -1
-22 -8 -29 -16 -7 -8 -21 -15 -31 -15 -10 0 -40 -14 -66 -30 -26 -17 -51 -30
-55 -30 -5 0 -28 -9 -50 -20 -23 -11 -51 -20 -63 -20 -11 0 -29 -6 -40 -14
-37 -25 -186 -45 -295 -39 -41 2 -98 4 -126 3 -55 0 -112 30 -178 96 -19 19
-40 34 -48 34 -7 0 -31 18 -53 40 -22 22 -51 47 -65 54 -14 8 -47 35 -75 60
-27 25 -53 46 -57 46 -5 0 -8 5 -8 12 0 14 -138 145 -162 153 -10 4 -18 13
-18 21 0 8 -11 20 -25 26 -13 6 -27 19 -30 29 -3 10 -15 21 -25 24 -11 3 -28
17 -39 31 -10 13 -21 24 -24 24 -2 0 -41 36 -86 80 -44 44 -87 80 -94 80 -7 0
-13 9 -14 21 -2 20 -16 35 -75 82 -15 12 -28 27 -28 32 0 6 -21 28 -46 50 -25
21 -59 58 -75 82 -17 24 -36 43 -43 43 -15 0 -57 45 -82 88 -10 18 -36 44 -56
59 -21 14 -38 31 -38 37 0 6 -14 22 -30 35 -17 13 -39 40 -51 61 -12 21 -41
50 -66 66 -24 15 -50 40 -56 55 -15 34 -106 139 -121 139 -7 0 -18 16 -25 37
-8 20 -24 46 -36 57 -13 12 -25 33 -27 46 -1 14 -13 29 -25 35 -13 5 -23 13
-23 17 0 5 -7 8 -15 8 -9 0 -15 9 -15 23 0 12 -14 38 -30 57 -16 19 -34 40
-40 47 -5 7 -10 15 -10 18 0 4 -14 18 -30 32 -17 14 -38 39 -46 57 -9 17 -34
48 -55 68 -21 21 -39 40 -39 43 0 3 -7 13 -15 23 -52 58 -105 127 -105 136 0
5 -23 31 -50 56 -37 34 -50 53 -50 74 0 21 -15 42 -60 86 -42 41 -60 65 -60
83 0 35 -17 77 -31 77 -14 0 -59 47 -59 62 0 5 -11 19 -25 30 -14 11 -25 27
-25 37 0 10 -11 30 -25 45 -14 15 -25 33 -25 40 0 7 -11 25 -25 40 -14 15 -25
31 -25 36 0 12 -34 74 -42 78 -5 2 -8 9 -8 15 0 7 -23 38 -50 70 -28 32 -50
64 -50 70 0 7 -20 41 -45 77 -24 36 -50 76 -56 90 -32 68 -44 90 -51 90 -5 0
-8 9 -8 20 0 11 -3 20 -8 20 -7 0 -16 16 -58 105 -11 21 -33 58 -50 81 -18 23
-37 66 -44 95 -7 29 -22 62 -33 74 -26 27 -124 230 -157 325 -7 19 -19 49 -26
67 -8 17 -14 34 -14 37 0 3 -11 29 -25 58 -14 28 -25 59 -25 69 0 9 -7 22 -15
29 -8 7 -15 23 -15 36 0 12 -4 25 -9 29 -5 3 -13 20 -16 38 -10 47 -54 189
-65 209 -6 10 -10 27 -10 38 0 11 -7 23 -15 26 -8 4 -15 17 -15 29 0 13 -4 25
-10 27 -5 2 -12 21 -15 42 -2 22 -9 44 -15 50 -5 5 -10 18 -10 27 0 9 -7 22
-15 29 -8 7 -15 27 -15 44 0 18 -4 36 -10 42 -5 5 -10 24 -12 42 -1 17 -6 32
-10 32 -4 0 -8 8 -8 18 0 9 -7 30 -15 46 -8 15 -15 36 -15 45 0 10 -7 26 -15
37 -8 10 -15 30 -15 44 0 14 -7 34 -15 44 -8 11 -15 35 -15 53 0 19 -8 43 -19
54 -10 11 -26 50 -35 87 -9 37 -23 80 -31 95 -8 16 -15 40 -15 53 0 13 -3 24
-8 24 -4 0 -15 28 -26 63 -10 34 -25 76 -32 94 -8 17 -14 38 -14 46 0 9 -4 19
-10 22 -5 3 -10 21 -10 39 0 18 -7 41 -15 52 -8 10 -15 26 -15 35 0 9 -7 22
-15 29 -8 7 -15 25 -15 41 0 15 -4 31 -10 34 -5 3 -10 19 -10 34 0 16 -7 34
-15 41 -8 7 -15 28 -15 46 0 19 -4 34 -10 34 -5 0 -10 10 -10 23 0 12 -7 31
-15 41 -8 11 -15 28 -15 38 0 18 -3 26 -34 85 -9 17 -16 44 -16 61 0 16 -7 35
-15 42 -8 7 -15 21 -15 31 0 10 -4 21 -10 24 -5 3 -10 17 -10 30 0 13 -7 30
-15 39 -8 8 -15 24 -15 35 0 12 -4 21 -10 21 -5 0 -10 20 -10 44 0 26 -6 48
-15 56 -9 7 -15 29 -15 54 0 23 -6 48 -12 54 -20 20 -47 301 -36 372 17 111
21 130 34 141 8 6 14 19 14 29 0 9 15 36 33 60 17 24 37 50 42 60 30 50 89
130 97 130 4 0 28 27 52 60 77 105 470 480 502 480 4 0 21 15 39 33 17 17 44
41 60 52 15 11 36 28 47 38 10 9 23 17 28 17 6 0 10 5 10 10 0 6 9 10 19 10
10 0 21 7 25 15 3 8 12 15 21 15 8 0 15 5 15 10 0 6 11 10 24 10 13 0 26 7 30
15 3 8 12 15 19 15 8 0 20 7 27 15 7 8 21 15 31 15 11 0 19 4 19 8 0 12 56 42
78 42 11 0 22 4 24 9 5 14 156 91 178 91 10 0 33 8 52 17 62 31 68 33 95 33
16 0 37 7 47 15 11 8 30 15 42 15 13 0 26 5 29 10 3 6 25 10 49 10 23 0 51 7
62 15 10 8 39 15 64 15 26 0 50 4 56 10 12 12 87 29 179 40 39 5 88 13 110 19
22 6 66 11 98 11 31 0 57 4 57 8 0 5 80 14 178 21 97 7 182 14 187 16 24 8
431 3 550 -6z m-5592 -2899 c20 -5 54 -14 74 -19 21 -6 39 -15 41 -20 2 -6 12
-11 23 -11 10 0 19 -4 19 -10 0 -5 8 -10 19 -10 10 0 24 -7 31 -15 7 -8 21
-15 31 -15 10 0 21 -4 24 -10 3 -5 15 -10 26 -10 10 0 19 -7 19 -15 0 -8 5
-15 10 -15 14 0 34 -16 94 -75 68 -68 106 -113 106 -125 0 -12 16 -33 43 -58
10 -9 28 -37 40 -62 25 -54 78 -130 89 -130 4 0 8 -12 8 -27 1 -18 11 -37 30
-53 17 -13 30 -30 30 -37 0 -7 3 -13 8 -13 10 0 32 -50 32 -76 0 -12 7 -27 15
-34 8 -7 15 -20 15 -30 0 -9 16 -32 35 -51 19 -19 38 -48 41 -66 3 -18 12 -37
20 -44 8 -6 14 -17 14 -24 0 -7 12 -21 26 -31 14 -10 32 -32 40 -49 29 -60 63
-118 71 -124 5 -3 17 -22 26 -41 36 -71 79 -146 98 -166 10 -11 19 -28 19 -37
0 -10 7 -20 15 -23 8 -4 13 -10 10 -14 -2 -4 8 -25 23 -47 39 -56 52 -81 52
-98 0 -8 4 -15 8 -15 5 0 18 -18 31 -40 12 -22 26 -40 32 -40 5 0 8 -3 8 -7
-3 -17 2 -32 14 -45 19 -22 37 -56 37 -73 0 -9 12 -27 28 -41 15 -14 27 -29
27 -32 1 -16 36 -72 45 -72 6 0 10 -7 10 -15 0 -19 21 -58 38 -68 6 -4 12 -15
12 -22 0 -8 5 -15 10 -15 6 0 10 -6 10 -14 0 -8 6 -21 13 -28 11 -13 33 -50
64 -110 8 -16 19 -28 24 -28 5 0 9 -6 9 -14 0 -7 25 -51 55 -97 32 -50 55 -95
55 -111 0 -21 5 -28 19 -28 10 0 21 -8 25 -17 9 -28 46 -87 62 -99 7 -6 21
-26 29 -45 8 -19 33 -58 54 -88 21 -30 37 -60 35 -65 -2 -6 17 -33 42 -61 25
-27 55 -68 66 -90 11 -22 31 -54 44 -72 13 -17 24 -36 24 -41 0 -5 7 -15 15
-22 8 -7 15 -20 15 -30 0 -10 7 -20 15 -24 8 -3 15 -12 15 -20 0 -8 4 -16 8
-18 4 -1 18 -20 31 -40 12 -21 27 -38 32 -38 5 0 9 -11 9 -24 0 -13 3 -26 8
-28 4 -1 24 -29 45 -60 21 -31 47 -67 58 -79 10 -12 19 -27 19 -34 0 -7 18
-33 40 -58 23 -25 41 -50 42 -54 0 -4 19 -34 42 -67 22 -32 52 -75 65 -95 13
-20 28 -37 33 -39 4 -2 8 -10 8 -17 0 -8 11 -22 25 -33 13 -11 22 -21 20 -24
-3 -3 4 -13 15 -23 11 -10 20 -26 20 -36 0 -10 13 -23 30 -31 17 -7 30 -19 30
-26 0 -19 67 -111 122 -166 26 -27 48 -56 48 -65 0 -10 23 -39 50 -65 28 -26
50 -52 50 -56 0 -5 18 -28 40 -51 22 -24 40 -50 40 -58 0 -8 26 -39 58 -70 31
-31 79 -84 106 -119 27 -35 72 -87 100 -116 28 -30 74 -80 101 -111 28 -32 74
-82 102 -111 29 -30 60 -65 69 -79 9 -14 22 -25 29 -25 7 0 21 -11 31 -25 10
-14 24 -25 30 -25 7 0 32 -19 56 -42 78 -75 128 -118 134 -118 4 0 14 -8 23
-18 9 -11 46 -38 84 -62 37 -24 67 -46 67 -50 0 -16 39 -50 57 -50 11 0 38
-16 60 -35 23 -19 46 -35 52 -35 6 0 11 -4 11 -9 0 -5 11 -12 25 -15 14 -4 25
-11 25 -16 0 -6 9 -10 20 -10 11 0 31 -10 44 -21 26 -23 56 -41 94 -58 12 -6
22 -15 22 -21 0 -5 10 -10 23 -10 31 0 77 -22 77 -37 0 -7 11 -13 25 -13 14 0
25 -4 25 -10 0 -5 13 -10 29 -10 16 0 34 -7 41 -15 7 -8 19 -15 26 -15 8 0 14
-7 14 -15 0 -10 10 -15 30 -15 17 0 30 -4 30 -10 0 -5 13 -10 30 -10 16 0 33
-7 38 -16 7 -12 19 -15 42 -12 21 3 34 0 37 -9 3 -8 21 -13 43 -13 21 0 43 -7
50 -15 7 -8 25 -15 40 -15 15 0 33 -6 39 -14 7 -9 33 -13 74 -13 34 0 78 -5
97 -11 58 -19 488 -20 515 -1 6 4 34 10 64 14 40 5 56 4 62 -6 13 -21 11 -26
-14 -33 -13 -3 -40 -17 -61 -31 -20 -14 -45 -25 -55 -25 -24 0 -88 -27 -96
-40 -3 -5 -17 -10 -31 -10 -13 0 -24 -4 -24 -10 0 -5 -9 -10 -20 -10 -11 0
-20 -4 -20 -9 0 -5 -13 -12 -29 -16 -16 -3 -32 -13 -35 -21 -3 -8 -14 -14 -25
-14 -19 0 -109 -38 -133 -57 -7 -5 -41 -19 -75 -29 -35 -10 -63 -24 -63 -31 0
-15 -75 -58 -130 -74 -25 -7 -48 -17 -51 -22 -6 -8 -44 -20 -119 -36 -19 -4
-45 -13 -57 -19 -12 -7 -50 -12 -85 -12 -40 0 -71 -5 -85 -15 -18 -13 -76 -15
-396 -12 l-375 3 -35 27 c-35 27 -96 38 -128 23 -10 -4 -23 -1 -32 8 -9 9 -29
16 -46 16 -31 0 -112 23 -143 40 -10 6 -33 10 -51 10 -18 0 -42 7 -54 15 -12
9 -44 16 -72 16 -32 1 -52 6 -55 15 -3 9 -20 14 -44 14 -21 0 -43 5 -49 11
-12 12 -85 30 -120 30 -11 0 -24 6 -27 14 -3 8 -14 15 -25 15 -11 0 -26 7 -35
15 -8 9 -19 15 -23 14 -29 -5 -62 4 -81 21 -12 12 -22 17 -22 13 0 -4 -4 -3
-8 4 -4 7 -27 13 -50 14 -26 2 -42 8 -42 16 0 7 -11 15 -25 19 -14 3 -22 10
-19 15 3 5 -9 9 -26 9 -18 0 -29 4 -25 10 4 6 -7 10 -24 10 -21 0 -31 5 -31
15 0 11 -11 15 -36 15 -19 0 -33 4 -30 9 3 5 -8 11 -25 15 -17 3 -28 10 -24
16 4 6 -5 10 -19 10 -14 0 -28 5 -31 10 -3 6 -15 10 -26 10 -10 0 -19 7 -19
15 0 8 -8 15 -19 15 -10 0 -35 11 -55 25 -20 14 -45 25 -54 25 -9 0 -30 12
-45 26 -16 14 -35 27 -42 28 -8 1 -25 11 -37 22 -37 32 -76 54 -98 54 -11 0
-20 5 -20 11 0 16 -25 37 -53 45 -15 3 -29 14 -32 25 -7 20 -48 44 -94 54 -16
3 -43 22 -61 42 -18 19 -47 41 -65 49 -18 7 -42 24 -52 37 -10 14 -33 32 -50
41 -18 9 -36 22 -40 30 -4 8 -17 15 -28 18 -11 2 -26 16 -33 31 -7 15 -18 27
-25 27 -20 0 -127 81 -127 96 0 8 -12 20 -27 27 -16 6 -51 36 -79 65 -28 28
-55 52 -60 52 -5 0 -48 37 -96 83 -48 45 -97 91 -110 103 -13 12 -32 32 -43
45 -11 13 -33 34 -49 47 -16 12 -27 22 -24 22 2 0 -20 25 -48 55 -29 30 -57
55 -62 55 -6 0 -16 13 -24 30 -7 16 -17 30 -21 30 -11 0 -67 59 -67 71 0 5 -4
9 -9 9 -5 0 -12 8 -15 18 -7 21 -61 82 -74 82 -14 0 -43 36 -35 43 3 4 -1 7
-10 7 -9 0 -17 10 -19 23 -2 12 -13 26 -25 32 -13 5 -23 17 -23 26 0 26 -24
66 -62 103 -19 19 -38 41 -41 50 -4 9 -11 16 -17 16 -5 0 -10 9 -10 20 0 11
-5 20 -12 20 -21 0 -68 53 -68 77 0 13 -4 23 -10 23 -5 0 -10 7 -10 15 0 8 -9
15 -20 15 -11 0 -20 7 -20 15 0 8 -9 19 -20 25 -11 6 -20 17 -20 25 0 8 -11
25 -25 39 -14 14 -25 37 -25 51 0 23 -10 30 -33 26 -5 -1 -6 2 -3 7 6 10 -48
72 -63 72 -6 0 -11 5 -11 10 0 16 -79 130 -118 172 -19 20 -43 60 -53 88 -10
28 -32 67 -48 86 -17 19 -31 39 -31 45 0 14 -26 39 -39 39 -6 0 -11 7 -11 15
0 8 -13 28 -30 45 -17 17 -30 41 -30 55 0 14 -4 25 -8 25 -5 0 -18 19 -30 43
-11 23 -30 52 -41 64 -12 12 -21 29 -21 37 0 7 -7 16 -15 20 -8 3 -15 14 -15
24 0 11 -6 25 -14 31 -8 7 -12 20 -9 30 2 9 -3 23 -11 30 -9 8 -16 18 -16 23
0 6 -11 19 -25 30 -20 16 -25 28 -25 64 0 30 -5 46 -15 50 -8 4 -15 15 -15 26
0 22 -21 43 -57 58 -18 7 -23 18 -23 46 0 27 -5 37 -20 41 -13 3 -22 17 -26
39 -3 19 -10 34 -15 34 -4 0 -11 16 -15 35 -3 19 -10 35 -15 35 -5 0 -9 7 -9
16 0 18 -31 77 -42 82 -5 2 -8 12 -8 22 0 10 -6 25 -13 32 -31 31 -47 65 -47
96 0 25 -5 35 -19 39 -21 5 -81 112 -81 143 0 10 -4 20 -8 22 -10 4 -62 108
-62 124 0 6 -7 14 -15 18 -8 3 -15 15 -15 26 0 12 -4 19 -9 15 -5 -3 -12 5
-16 17 -3 13 -10 32 -15 43 -4 11 -11 27 -14 35 -3 8 -10 22 -14 30 -23 40
-32 61 -32 74 0 7 -7 19 -15 26 -8 7 -15 26 -15 42 0 16 -7 36 -15 44 -8 9
-15 23 -15 33 0 10 -11 30 -25 45 -18 19 -25 38 -25 65 0 25 -5 41 -15 45 -8
3 -15 15 -15 27 0 24 -21 91 -31 99 -15 13 -28 51 -35 101 -4 30 -13 66 -20
81 -21 41 -20 371 1 388 8 7 15 25 15 41 0 16 3 29 8 29 4 0 16 20 27 45 11
25 23 45 27 45 4 0 14 15 23 33 8 18 39 56 68 83 29 27 51 52 49 56 -1 5 4 8
12 8 8 0 16 3 18 8 5 11 107 76 153 97 22 11 42 22 45 25 8 10 95 50 109 50 7
0 26 11 43 25 16 14 39 25 49 25 11 0 27 7 35 15 9 8 31 15 50 15 19 0 34 4
34 9 0 5 6 9 13 8 46 -1 87 4 83 12 -7 11 17 21 52 21 15 0 34 6 44 13 20 16
238 21 291 7z m9212 -23 c50 -3 124 -15 165 -27 41 -12 101 -26 133 -32 49 -9
55 -12 40 -23 -15 -11 -15 -17 -5 -39 9 -20 19 -26 41 -26 31 0 58 30 46 50
-10 16 4 12 67 -20 32 -16 66 -30 74 -30 26 0 244 -121 244 -136 0 -3 -5 -2
-12 2 -7 5 -8 3 -4 -5 5 -7 14 -10 22 -7 8 3 14 0 14 -6 0 -6 3 -9 6 -6 3 4
21 -4 40 -17 19 -13 40 -25 46 -27 6 -2 13 -22 14 -43 4 -47 14 -57 50 -53 21
2 29 8 27 21 -1 16 4 14 30 -10 63 -56 67 -64 50 -96 -13 -26 -13 -31 3 -48
21 -23 57 -25 75 -3 11 14 14 13 25 -8 8 -13 13 -41 14 -63 0 -22 5 -56 11
-75 7 -19 14 -118 16 -220 5 -212 5 -180 4 -460 -1 -118 -1 -268 -2 -333 0
-65 -4 -129 -9 -143 -6 -14 -10 -69 -10 -122 0 -53 -7 -129 -15 -167 -8 -39
-15 -89 -15 -112 0 -44 -7 -52 -27 -32 -15 15 -54 8 -66 -12 -5 -9 -7 -28 -3
-42 5 -22 12 -27 36 -27 17 0 30 -3 30 -7 0 -5 -9 -49 -20 -100 -13 -62 -26
-99 -41 -114 -15 -15 -19 -27 -14 -42 12 -36 6 -89 -15 -128 -10 -21 -22 -55
-25 -76 -4 -21 -17 -56 -30 -78 -12 -22 -26 -62 -30 -90 -4 -27 -10 -44 -12
-37 -3 6 -9 12 -14 12 -15 0 -28 -43 -18 -61 5 -10 3 -24 -7 -37 -8 -12 -26
-51 -39 -87 -13 -36 -39 -89 -58 -118 -19 -28 -46 -79 -61 -111 -14 -33 -44
-79 -66 -102 -22 -24 -40 -53 -40 -64 0 -11 -7 -23 -15 -26 -8 -4 -13 -10 -10
-14 3 -4 -2 -14 -11 -21 -8 -7 -21 -26 -28 -44 -19 -44 -43 -65 -76 -65 -39 0
-56 -31 -40 -71 11 -26 10 -33 -15 -70 -36 -51 -42 -54 -55 -29 -15 27 -65 27
-80 0 -13 -25 -5 -56 17 -64 13 -5 7 -15 -28 -47 -43 -40 -44 -40 -72 -24 -26
15 -30 15 -52 1 -27 -18 -31 -36 -15 -66 9 -17 4 -24 -32 -50 -27 -20 -51 -30
-65 -27 -27 5 -34 0 -70 -44 -30 -38 -134 -129 -193 -169 -19 -13 -48 -36 -65
-51 -16 -15 -68 -46 -115 -69 -47 -22 -96 -47 -110 -55 -74 -42 -274 -135
-292 -135 -17 0 -19 4 -12 28 4 15 9 110 10 212 1 102 6 226 12 275 6 50 8
125 5 168 -7 89 13 225 31 207 14 -14 49 -13 64 2 31 31 2 84 -42 76 -24 -5
-25 -3 -31 77 -8 96 -1 147 21 138 8 -3 25 -2 39 1 35 9 36 68 2 83 -15 7 -29
8 -38 2 -24 -15 -26 -11 -26 44 0 30 -6 84 -14 121 -11 59 -11 76 2 126 10 38
12 66 6 82 -4 12 -11 100 -13 193 -9 322 -13 370 -28 419 -12 36 -16 90 -16
201 0 98 -4 155 -11 162 -16 16 -16 158 1 220 12 46 12 55 -2 70 -30 35 -41
210 -13 225 31 18 36 44 14 73 -12 14 -27 24 -35 21 -20 -8 -28 29 -29 124 l0
85 29 0 c40 0 61 33 40 63 -17 25 -59 29 -71 7 -9 -15 -33 68 -81 275 -16 68
-17 88 -7 100 30 37 21 90 -15 90 -16 0 -20 7 -20 33 -1 17 -7 49 -14 70 -8
20 -10 37 -5 37 13 0 11 28 -2 36 -6 3 -15 1 -19 -6 -13 -21 -20 17 -20 111 0
56 -5 100 -14 117 -7 15 -18 55 -24 90 -6 35 -20 78 -32 96 -23 38 -28 68 -8
48 20 -20 66 -14 106 13 24 17 50 25 77 25 23 0 46 5 51 10 8 8 15 6 24 -5 28
-34 81 -10 84 38 1 19 11 25 69 39 214 53 452 72 712 55z m-6281 -1813 c9 -3
16 -12 16 -20 0 -7 6 -17 14 -21 14 -8 43 -66 134 -268 45 -99 48 -111 32
-117 -21 -8 -30 -37 -19 -66 8 -21 23 -26 60 -23 21 2 50 -46 78 -130 12 -35
33 -80 46 -99 13 -19 40 -73 60 -119 19 -46 46 -97 60 -113 29 -34 30 -41 10
-58 -18 -15 -20 -51 -3 -68 15 -15 50 -16 65 -1 8 8 15 3 27 -19 9 -17 16 -36
16 -42 0 -7 9 -24 20 -40 11 -15 17 -30 14 -33 -3 -3 6 -13 21 -23 15 -10 31
-27 36 -38 5 -12 27 -49 48 -83 22 -35 42 -72 46 -83 3 -11 21 -37 39 -59 18
-21 49 -72 70 -112 20 -41 47 -86 58 -102 l22 -27 -22 -16 c-24 -17 -29 -53
-10 -72 17 -17 54 -15 71 3 14 13 17 10 33 -30 9 -25 23 -50 30 -56 7 -6 10
-17 8 -24 -9 -23 15 -55 40 -55 18 0 35 -16 67 -61 24 -34 52 -70 62 -80 9
-11 17 -29 17 -41 0 -13 24 -45 63 -84 34 -34 75 -79 90 -100 69 -96 91 -120
121 -136 20 -10 41 -33 51 -55 10 -21 38 -56 62 -79 33 -31 47 -53 57 -90 10
-40 18 -52 43 -63 21 -9 38 -29 54 -63 15 -33 34 -55 55 -66 33 -17 104 -98
104 -118 0 -7 17 -24 37 -40 36 -27 37 -28 14 -34 -48 -11 -40 -90 9 -90 22 0
53 28 45 41 -4 5 -3 9 0 9 3 0 13 -16 21 -36 10 -25 26 -40 52 -51 35 -15 36
-16 15 -26 -30 -13 -36 -35 -18 -63 18 -28 56 -32 76 -8 11 14 16 10 36 -30
13 -25 30 -46 38 -46 7 0 27 -12 42 -26 l28 -25 -33 23 c-37 25 -53 16 -44
-28 5 -27 45 -43 71 -27 12 7 20 4 33 -13 10 -12 18 -27 18 -32 0 -5 7 -15 16
-23 8 -7 13 -21 11 -30 -8 -31 21 -61 56 -57 28 3 35 -2 51 -33 12 -23 35 -43
60 -55 22 -10 43 -26 46 -34 19 -43 30 -57 61 -75 28 -16 33 -25 31 -48 -2
-16 2 -35 9 -43 13 -16 55 -19 64 -3 9 14 38 -28 32 -45 -9 -22 -53 -24 -108
-5 -34 12 -83 19 -148 20 -108 1 -155 9 -107 18 16 4 35 15 42 26 12 18 11 24
-2 43 -19 28 -55 28 -80 1 -15 -17 -16 -23 -6 -40 11 -18 9 -19 -26 -19 -48 0
-125 26 -170 57 -19 12 -45 23 -57 23 -41 0 -153 41 -172 63 -14 17 -15 19 -1
9 33 -26 76 7 63 49 -9 26 -36 38 -62 28 -22 -8 -28 -25 -23 -59 2 -12 -2 -12
-17 3 -11 9 -26 17 -34 17 -17 0 -167 75 -189 95 -8 7 -42 27 -75 45 -99 53
-182 124 -203 173 -9 21 -18 27 -42 27 -24 0 -89 31 -118 55 -2 2 2 13 8 25 9
17 9 29 1 48 -11 22 -16 24 -56 19 -40 -6 -48 -3 -85 28 -23 19 -37 35 -31 35
17 0 32 38 25 64 -7 30 -41 40 -72 20 -30 -20 -54 -11 -86 31 -21 28 -24 35
-12 42 29 17 24 66 -9 81 -23 11 -29 9 -51 -13 -14 -14 -27 -25 -29 -25 -3 0
-12 15 -21 33 -9 17 -26 42 -37 55 -17 18 -18 22 -4 22 21 0 31 34 17 60 -13
25 -56 27 -82 3 -11 -9 -18 -11 -18 -5 0 7 -16 29 -35 51 -31 34 -33 40 -20
51 10 8 13 21 9 34 -9 28 -9 28 -51 35 -34 6 -40 12 -77 81 -21 41 -47 91 -57
110 -11 19 -19 52 -19 75 -1 22 -7 51 -15 65 -20 35 -18 43 5 30 17 -9 25 -6
45 14 22 22 24 28 13 51 -20 44 -88 29 -88 -19 -1 -19 -2 -19 -10 -4 -15 25
-50 140 -50 165 0 12 -9 27 -20 33 -18 10 -33 47 -65 166 -8 28 -30 83 -50
123 -27 53 -34 76 -26 84 26 26 -5 93 -38 85 -12 -3 -27 33 -85 202 -18 52
-38 106 -45 119 -11 20 -10 25 8 38 38 26 21 83 -25 83 -23 0 -28 13 -60 162
-9 45 -28 96 -45 123 -33 52 -35 67 -14 85 29 24 12 80 -24 80 -28 0 -107 193
-130 314 -6 35 -5 48 5 57 30 25 10 79 -29 79 -17 0 -18 6 -14 48 6 72 27 166
39 177 8 7 9 5 4 -5 -4 -8 0 -6 9 5 10 13 43 25 93 36 42 9 78 17 79 18 1 0 8
-2 17 -5z m-4034 -428 c-17 -17 -11 -54 12 -70 18 -13 25 -13 47 -2 25 14 26
13 53 -40 16 -30 28 -63 28 -74 0 -11 11 -27 25 -36 15 -10 25 -26 25 -40 0
-13 9 -38 20 -56 11 -18 20 -41 20 -50 0 -10 12 -25 26 -34 24 -16 78 -115 86
-157 2 -11 -7 -22 -22 -30 -34 -17 -39 -60 -8 -81 28 -20 30 -20 56 4 27 25
42 19 70 -31 17 -30 21 -44 13 -52 -25 -25 -6 -77 29 -77 19 0 60 -41 64 -61
4 -27 47 -107 61 -112 7 -3 16 -19 20 -35 3 -17 15 -38 26 -48 10 -9 19 -23
19 -30 0 -7 9 -18 21 -25 11 -6 32 -36 46 -67 14 -32 33 -66 43 -77 20 -24 34
-59 20 -50 -14 9 -48 -12 -55 -35 -3 -10 -1 -28 5 -40 14 -25 65 -27 79 -3 5
10 11 16 13 13 2 -3 20 -24 41 -48 34 -39 50 -71 28 -57 -15 9 -23 -32 -11
-55 9 -17 19 -21 48 -18 34 3 37 1 43 -29 3 -17 15 -43 26 -57 11 -14 26 -46
33 -71 10 -37 22 -52 58 -77 27 -19 51 -46 63 -72 23 -50 36 -66 70 -88 14 -9
32 -31 40 -50 7 -18 34 -53 60 -78 25 -25 63 -71 84 -102 21 -32 42 -58 46
-58 5 0 18 -18 29 -39 10 -22 30 -47 42 -58 13 -10 30 -27 38 -37 15 -19 14
-19 -12 -2 -26 17 -30 17 -53 2 -15 -10 -25 -26 -25 -41 0 -15 10 -31 25 -41
23 -15 27 -15 50 0 14 9 25 25 25 36 0 14 12 6 48 -33 26 -29 54 -61 62 -72
14 -20 14 -20 -7 -2 -20 18 -21 17 -42 -9 -27 -34 -26 -38 6 -63 28 -23 59
-20 80 8 9 12 9 20 0 31 -7 8 4 1 24 -15 40 -33 76 -85 60 -85 -17 0 -33 -40
-27 -66 9 -33 38 -47 70 -32 14 6 26 15 26 20 0 5 20 -8 44 -29 43 -37 44 -38
25 -56 -38 -35 -16 -87 36 -87 32 0 40 7 36 32 0 4 24 -12 55 -34 49 -37 53
-43 36 -49 -40 -15 -39 -83 1 -98 27 -10 56 3 66 31 7 18 11 16 42 -28 33 -46
34 -51 21 -78 -13 -26 -13 -32 1 -55 23 -38 47 -38 79 -1 l27 33 34 -26 c41
-31 67 -88 37 -80 -23 6 -43 -28 -34 -61 7 -30 41 -46 73 -35 18 7 22 15 18
34 -4 22 -2 25 17 19 57 -17 87 -35 97 -58 7 -14 30 -35 53 -46 140 -71 238
-132 299 -187 34 -30 75 -62 92 -70 58 -30 105 -74 105 -98 0 -31 27 -45 84
-45 34 0 50 -6 66 -22 22 -24 25 -34 10 -43 -14 -9 -13 -58 2 -73 18 -18 53
-15 72 7 23 25 48 17 91 -28 34 -35 35 -36 14 -41 -50 -12 -51 -84 -2 -96 33
-9 67 27 59 61 -5 19 -2 21 27 17 17 -3 44 -13 58 -23 14 -10 38 -21 55 -25
16 -4 40 -15 53 -26 13 -10 36 -18 52 -18 16 0 48 -12 71 -28 35 -22 42 -32
40 -53 -6 -54 63 -81 87 -35 12 22 16 23 50 14 20 -6 61 -23 91 -38 30 -15 66
-31 80 -35 67 -19 138 -58 149 -81 8 -19 18 -24 46 -24 32 0 40 7 36 33 -3 18
30 5 45 -18 9 -14 24 -25 34 -25 9 0 35 -12 56 -27 36 -24 110 -39 218 -42 11
-1 16 -6 13 -15 -8 -21 21 -56 48 -56 13 0 30 9 38 20 12 17 18 18 48 10 19
-6 59 -10 90 -10 31 0 73 -7 92 -15 21 -9 67 -15 109 -15 40 0 89 -5 108 -11
47 -14 578 -14 649 0 29 6 81 11 115 11 36 0 85 8 119 20 68 24 81 25 97 5 20
-24 65 -19 80 9 10 19 20 24 46 23 19 -1 34 -7 34 -14 0 -7 17 -15 38 -18 131
-19 267 -71 251 -96 -13 -22 -11 -37 10 -58 19 -19 19 -20 -42 -41 -34 -12
-96 -30 -137 -42 -42 -11 -86 -30 -100 -43 -40 -37 -190 -86 -279 -92 -29 -2
-65 -10 -80 -18 -49 -27 -66 -33 -133 -47 -65 -15 -67 -14 -57 3 16 31 -6 59
-45 59 -42 0 -63 -36 -40 -69 12 -16 12 -21 2 -21 -7 0 -44 -5 -83 -11 -38 -5
-104 -14 -145 -19 -41 -5 -126 -16 -188 -24 -74 -10 -147 -13 -212 -9 -69 4
-104 2 -113 -6 -11 -8 -33 -9 -88 -1 -41 6 -146 13 -234 16 -88 2 -185 9 -215
14 -30 6 -93 17 -140 25 -47 8 -103 19 -125 26 -22 6 -66 14 -99 18 -47 6 -63
12 -80 34 -22 27 -69 37 -81 17 -6 -10 -65 13 -104 42 -22 17 -22 18 -4 18 50
0 58 73 11 99 -24 14 -28 14 -47 -3 -23 -21 -28 -65 -8 -85 10 -11 5 -12 -28
-6 -22 4 -58 14 -80 22 -22 8 -54 17 -72 20 -20 3 -35 12 -38 24 -7 22 -41 43
-55 34 -16 -10 -66 4 -94 26 -25 19 -25 21 -9 45 31 48 -20 100 -67 67 -17
-12 -21 -23 -18 -50 4 -31 2 -34 -18 -29 -30 8 -271 115 -308 137 -21 13 -30
26 -31 50 -2 17 -9 35 -16 40 -23 14 -66 10 -73 -6 -5 -13 -14 -12 -58 11 -29
15 -55 31 -56 35 -2 5 -18 17 -35 26 -18 9 -50 31 -73 49 -25 21 -52 34 -70
34 -34 1 -63 15 -108 55 -17 15 -47 33 -66 39 -20 6 -39 21 -45 34 -5 12 -16
20 -23 17 -7 -3 -10 0 -7 5 3 6 -4 10 -15 10 -12 0 -33 9 -47 20 -14 11 -35
20 -47 20 -30 0 -52 15 -33 23 26 10 28 47 2 73 -21 21 -27 22 -50 12 -14 -6
-25 -18 -25 -25 0 -30 -75 8 -145 72 -27 26 -66 53 -86 61 -19 8 -50 30 -68
49 -18 20 -55 45 -82 56 -27 12 -60 36 -74 55 -14 19 -34 34 -43 34 -33 0
-121 49 -138 77 -15 25 -43 55 -107 120 -42 43 -139 131 -176 161 -23 18 -41
39 -41 46 0 17 -23 37 -47 40 -10 2 -28 18 -41 36 -12 19 -35 42 -50 52 -15
10 -24 18 -20 18 4 0 -4 23 -18 51 -25 49 -42 62 -95 73 -17 4 -29 14 -33 29
-3 13 -22 34 -43 48 -26 16 -39 33 -41 51 -2 20 -18 38 -58 65 -29 21 -54 42
-54 47 0 6 -18 31 -40 58 -23 26 -46 61 -51 77 -7 18 -22 34 -42 42 -47 19
-66 40 -87 96 -10 28 -37 69 -59 92 -22 22 -45 57 -51 76 -8 24 -25 44 -50 60
-29 18 -43 37 -58 77 -18 49 -19 53 -3 59 47 18 51 74 5 85 -32 8 -53 -1 -62
-26 -7 -18 -12 -13 -45 36 -33 51 -35 58 -23 76 11 15 12 26 4 44 -14 31 -36
38 -64 19 -22 -14 -24 -13 -35 8 -6 12 -20 31 -30 42 -9 11 -19 38 -21 60 -3
35 -6 40 -31 43 -22 3 -33 14 -57 61 -16 32 -49 78 -74 103 -46 46 -86 111
-86 139 0 9 -11 29 -25 45 -14 16 -39 44 -55 63 -17 20 -30 45 -30 61 0 15
-10 36 -24 49 -13 13 -27 39 -31 59 -4 21 -18 49 -32 63 -16 17 -21 29 -14 33
16 10 13 52 -4 66 -8 7 -27 10 -41 7 -23 -4 -25 -2 -21 22 6 30 -2 47 -55 117
-21 28 -43 66 -49 85 -6 19 -28 70 -49 114 -21 44 -42 94 -46 110 -4 17 -13
39 -20 49 -7 11 -10 31 -7 48 4 20 0 35 -13 49 -14 16 -18 39 -20 112 -1 85 0
94 22 116 13 13 24 31 24 40 0 17 48 60 115 104 33 21 88 40 200 67 24 6 37
-1 31 -16 -3 -9 4 -25 20 -40 23 -24 27 -25 47 -11 13 9 23 26 24 43 0 16 2
32 2 36 1 4 53 7 116 6 75 -2 111 -6 105 -12z m10022 -3311 c-2 -11 -7 -22
-11 -25 -4 -3 -10 -12 -14 -20 -4 -8 -13 -24 -19 -35 -38 -59 -60 -100 -83
-157 -14 -34 -31 -67 -38 -73 -7 -5 -23 -29 -34 -52 -12 -23 -26 -50 -31 -60
-6 -10 -18 -36 -28 -58 -11 -22 -21 -42 -24 -45 -3 -3 -18 -31 -35 -62 -16
-32 -32 -58 -36 -58 -4 0 -10 -13 -14 -30 -4 -16 -11 -30 -16 -30 -5 0 -9 -7
-9 -15 0 -14 -56 -125 -69 -135 -6 -5 -21 -35 -64 -130 -9 -19 -23 -46 -30
-60 -8 -14 -20 -37 -28 -52 -7 -16 -17 -28 -23 -28 -11 -1 -96 -170 -96 -190
0 -6 -7 -10 -15 -10 -8 0 -15 -8 -16 -17 0 -10 -9 -31 -20 -48 -10 -16 -23
-39 -28 -50 -5 -11 -25 -44 -45 -74 -20 -29 -36 -57 -36 -62 0 -5 -4 -9 -8 -9
-17 0 -32 -71 -32 -153 0 -86 22 -185 56 -249 8 -14 14 -36 14 -48 0 -11 5
-18 10 -15 6 3 10 -3 10 -13 0 -11 7 -33 15 -48 8 -16 15 -39 15 -51 0 -13 4
-23 9 -23 5 0 11 -10 13 -23 2 -12 9 -21 16 -19 6 1 11 -1 10 -5 -4 -17 14
-103 21 -103 5 0 16 -26 26 -57 10 -32 22 -63 27 -70 23 -30 -4 -35 -156 -32
-83 1 -202 1 -265 0 -96 -3 -117 0 -127 13 -6 9 -19 16 -28 16 -9 0 -16 6 -16
14 0 7 -7 19 -15 26 -8 7 -15 23 -15 37 0 13 -4 33 -10 43 -5 10 -11 42 -12
70 -1 28 -8 56 -15 62 -7 6 -13 19 -13 29 0 24 -29 100 -47 120 -7 8 -13 27
-13 41 0 64 -86 164 -162 188 -24 8 -56 22 -73 32 -28 17 -35 20 -67 33 -7 3
-20 9 -28 14 -26 15 -93 49 -142 72 -27 13 -48 26 -48 31 0 4 -11 8 -24 8 -13
0 -29 7 -36 15 -7 8 -19 15 -28 15 -8 0 -30 11 -48 25 -18 14 -40 25 -49 25
-9 0 -23 7 -31 15 -9 8 -24 15 -34 15 -10 0 -22 5 -25 10 -3 6 -17 10 -30 10
-12 0 -25 7 -29 15 -3 8 -15 15 -26 15 -21 0 -54 16 -78 38 -7 6 -24 12 -36
12 -27 0 -86 28 -86 40 0 5 -18 14 -40 20 -21 6 -46 17 -54 25 -8 8 -22 15
-31 15 -21 0 -77 31 -88 48 -4 6 -19 12 -32 12 -14 0 -25 5 -25 10 0 6 -9 10
-19 10 -10 0 -21 7 -25 15 -3 8 -16 15 -30 15 -14 0 -28 5 -31 10 -3 6 -14 10
-25 10 -10 0 -20 7 -24 15 -3 8 -14 15 -25 15 -11 0 -22 4 -25 9 -3 5 -22 12
-41 15 -19 4 -35 11 -35 15 0 5 -11 12 -25 15 -14 4 -23 11 -20 16 3 5 0 7 -8
4 -9 -3 -22 4 -30 17 -12 16 -22 20 -40 15 -17 -4 -27 -1 -31 9 -3 8 -10 15
-16 15 -6 0 -18 7 -26 15 -13 13 -13 15 -1 15 8 0 20 7 27 15 7 8 21 15 31 15
10 0 22 6 26 14 4 7 19 16 33 19 50 10 95 32 113 55 10 12 27 22 38 22 10 0
19 5 19 10 0 6 8 10 19 10 10 0 24 7 31 15 7 8 25 15 41 15 16 0 29 5 29 10 0
6 8 10 19 10 10 0 24 7 31 15 7 8 20 15 29 15 9 0 23 6 30 13 7 7 38 12 76 12
43 0 66 -4 70 -12 2 -7 9 -13 15 -13 6 0 21 -11 34 -25 15 -17 34 -25 55 -25
19 0 34 -6 37 -15 4 -8 17 -15 30 -15 12 0 27 -6 31 -13 12 -19 74 -37 126
-37 26 0 47 -5 47 -10 0 -8 53 -9 163 -6 208 6 287 14 305 32 10 11 26 13 57
8 32 -4 50 -2 67 10 12 9 35 16 50 16 16 0 28 5 28 12 0 6 3 9 6 5 3 -3 15 3
27 14 11 10 31 19 44 19 13 0 22 5 20 13 -1 7 10 13 27 15 16 2 35 10 43 18 8
8 20 14 26 14 7 0 24 11 39 25 15 14 36 25 48 25 11 0 20 4 20 9 0 5 21 18 48
29 26 11 57 30 69 41 12 12 28 21 35 21 7 0 30 11 50 25 20 14 41 25 46 25 10
0 161 96 214 137 20 15 37 36 38 45 0 9 10 25 23 35 28 23 47 57 47 82 0 10 7
21 15 25 8 3 15 16 15 30 0 14 5 28 10 31 6 3 10 14 10 24 0 27 46 61 83 61
17 1 43 7 57 15 14 8 45 14 70 15 72 0 204 22 221 37 8 7 33 13 55 13 21 0 46
5 54 10 25 17 55 8 52 -15z m-7737 -785 c10 -11 16 -20 13 -20 -3 0 -13 9 -23
20 -10 11 -16 20 -13 20 3 0 13 -9 23 -20z m4576 -593 c-10 -9 -11 -8 -5 6 3
10 9 15 12 12 3 -3 0 -11 -7 -18z"/>
<path d="M10998 8159 c-21 -12 -24 -49 -6 -67 21 -21 64 -14 76 12 20 45 -26
81 -70 55z"/>
<path d="M11290 8154 c-10 -11 -11 -23 -4 -42 17 -49 94 -37 94 14 0 38 -66
58 -90 28z"/>
<path d="M11596 8154 c-19 -18 -20 -28 -6 -55 14 -26 66 -26 80 0 26 49 -35
95 -74 55z"/>
<path d="M10536 7998 c-17 -24 -8 -51 23 -67 39 -22 82 44 49 77 -19 19 -55
14 -72 -10z"/>
<path d="M10842 8008 c-35 -35 9 -96 54 -76 43 20 27 88 -21 88 -12 0 -26 -5
-33 -12z"/>
<path d="M11142 8008 c-35 -35 9 -96 53 -76 30 13 37 41 18 67 -16 23 -52 28
-71 9z"/>
<path d="M11448 8009 c-21 -12 -24 -52 -5 -66 22 -18 43 -21 58 -9 56 40 6
110 -53 75z"/>
<path d="M11740 8005 c-16 -20 -5 -62 20 -75 40 -22 83 27 60 70 -13 24 -61
27 -80 5z"/>
<path d="M12046 8004 c-19 -19 -20 -35 -3 -56 21 -26 46 -29 67 -8 11 11 20
26 20 34 0 20 -28 46 -50 46 -10 0 -26 -7 -34 -16z"/>
<path d="M10698 7859 c-21 -12 -24 -49 -6 -67 28 -28 78 -7 78 33 0 40 -35 56
-72 34z"/>
<path d="M10998 7859 c-21 -12 -24 -49 -6 -67 21 -21 64 -14 76 12 20 45 -26
81 -70 55z"/>
<path d="M11298 7859 c-21 -12 -24 -49 -6 -67 19 -19 66 -15 78 7 14 27 13 37
-6 55 -18 18 -41 20 -66 5z"/>
<path d="M11596 7854 c-19 -18 -20 -28 -6 -55 14 -26 66 -26 80 0 26 49 -35
95 -74 55z"/>
<path d="M11896 7854 c-19 -18 -20 -28 -6 -55 21 -39 90 -16 90 30 0 16 -30
41 -50 41 -10 0 -26 -7 -34 -16z"/>
<path d="M12196 7854 c-19 -18 -20 -28 -6 -55 21 -39 90 -16 90 30 0 16 -30
41 -50 41 -10 0 -26 -7 -34 -16z"/>
<path d="M10539 7699 c-16 -30 3 -69 34 -69 29 0 47 17 47 45 0 45 -60 63 -81
24z"/>
<path d="M10840 7706 c-15 -19 -9 -56 11 -69 9 -5 28 -7 42 -3 23 5 27 12 27
40 0 34 -13 46 -50 46 -9 0 -23 -7 -30 -14z"/>
<path d="M11140 7706 c-15 -19 -9 -56 11 -69 22 -14 66 -1 74 22 14 46 -54 84
-85 47z"/>
<path d="M11440 7701 c-15 -29 -12 -49 9 -61 28 -14 47 -13 66 6 16 17 12 53
-9 66 -21 14 -55 8 -66 -11z"/>
<path d="M11738 7694 c-17 -36 0 -59 42 -59 42 0 59 23 42 59 -9 20 -19 26
-42 26 -23 0 -33 -6 -42 -26z"/>
<path d="M12042 7699 c-17 -27 -6 -58 24 -65 48 -12 76 18 56 62 -15 31 -61
33 -80 3z"/>
<path d="M12338 7694 c-17 -36 0 -59 42 -59 42 0 59 23 42 59 -9 20 -19 26
-42 26 -23 0 -33 -6 -42 -26z"/>
<path d="M11913 7567 c-49 -21 -35 -87 17 -87 50 0 65 59 23 86 -12 8 -25 8
-40 1z"/>
<path d="M10692 7558 c-16 -16 -15 -53 2 -68 21 -16 56 -9 72 15 27 41 -39 88
-74 53z"/>
<path d="M10992 7558 c-7 -7 -12 -21 -12 -33 0 -29 19 -45 52 -45 17 0 31 7
38 21 24 43 -43 92 -78 57z"/>
<path d="M11298 7559 c-21 -12 -24 -49 -6 -67 19 -19 66 -15 78 7 25 47 -25
88 -72 60z"/>
<path d="M11596 7554 c-19 -18 -20 -28 -6 -55 14 -26 66 -26 80 0 26 49 -35
95 -74 55z"/>
<path d="M12204 7562 c-18 -12 -24 -42 -14 -63 21 -39 90 -16 90 30 0 28 -50
51 -76 33z"/>
<path d="M12504 7562 c-17 -11 -22 -35 -13 -60 7 -19 15 -23 41 -20 26 2 35 9
43 31 8 24 6 31 -10 43 -21 15 -44 18 -61 6z"/>
<path d="M10842 7408 c-35 -35 9 -96 54 -76 43 20 27 88 -21 88 -12 0 -26 -5
-33 -12z"/>
<path d="M11142 7408 c-35 -35 14 -103 57 -77 11 7 22 22 25 33 11 41 -52 74
-82 44z"/>
<path d="M11448 7409 c-45 -26 0 -99 47 -77 27 12 35 35 24 66 -9 24 -41 29
-71 11z"/>
<path d="M11740 7401 c-16 -31 -12 -49 15 -67 23 -15 27 -15 50 0 14 9 25 25
25 36 0 45 -69 69 -90 31z"/>
<path d="M12046 7404 c-9 -8 -16 -22 -16 -29 0 -20 28 -45 50 -45 44 0 67 60
31 80 -27 14 -47 13 -65 -6z"/>
<path d="M12340 7400 c-14 -26 -5 -57 21 -71 43 -23 92 44 57 79 -20 20 -66
15 -78 -8z"/>
<path d="M12647 7399 c-19 -26 -12 -54 18 -67 44 -20 88 41 53 76 -19 19 -55
14 -71 -9z"/>
<path d="M10696 7267 c-20 -15 -25 -62 -8 -79 14 -14 59 -13 77 2 21 17 19 46
-5 70 -23 23 -39 25 -64 7z"/>
<path d="M11003 7267 c-25 -11 -32 -54 -11 -75 21 -21 64 -14 75 11 19 42 -22
83 -64 64z"/>
<path d="M11301 7264 c-23 -17 -28 -53 -9 -72 20 -20 66 -15 78 8 24 45 -27
93 -69 64z"/>
<path d="M11601 7259 c-38 -36 -21 -79 31 -79 50 0 60 67 13 88 -18 9 -27 7
-44 -9z"/>
<path d="M11913 7267 c-49 -21 -35 -87 17 -87 50 0 65 59 23 86 -12 8 -25 8
-40 1z"/>
<path d="M12512 7267 c-19 -9 -22 -17 -20 -46 3 -32 6 -36 34 -39 38 -4 59 18
50 53 -8 32 -34 45 -64 32z"/>
<path d="M12196 7254 c-19 -18 -19 -16 -6 -48 13 -36 65 -37 81 -2 23 50 -36
90 -75 50z"/>
<path d="M10860 7122 c-21 -7 -30 -23 -30 -53 0 -33 38 -56 68 -40 53 28 20
112 -38 93z"/>
<path d="M11140 7105 c-16 -19 -5 -62 19 -74 14 -8 25 -6 45 10 31 24 33 40 8
62 -23 21 -56 22 -72 2z"/>
<path d="M11438 7096 c-20 -44 8 -74 56 -62 52 13 40 86 -15 86 -22 0 -32 -6
-41 -24z"/>
<path d="M11739 7099 c-18 -34 3 -69 41 -69 22 0 33 6 41 24 16 35 -3 66 -41
66 -20 0 -33 -7 -41 -21z"/>
<path d="M12039 7099 c-8 -16 -8 -28 0 -46 9 -19 17 -24 43 -21 40 4 56 28 40
62 -15 34 -66 37 -83 5z"/>
<path d="M12346 7104 c-31 -30 -5 -78 40 -72 37 4 51 29 36 62 -13 30 -51 35
-76 10z"/>
<path d="M12642 7095 c-16 -34 3 -65 38 -65 31 0 50 17 50 45 0 49 -68 64 -88
20z"/>
<path d="M11003 6968 c-25 -12 -33 -35 -22 -66 16 -43 99 -24 99 23 0 13 -37
55 -48 54 -4 0 -17 -5 -29 -11z"/>
<path d="M11292 6958 c-7 -7 -12 -21 -12 -33 0 -29 19 -45 52 -45 44 0 60 57
24 82 -17 12 -51 9 -64 -4z"/>
<path d="M11589 6949 c-8 -16 -8 -28 0 -45 22 -50 103 -18 84 33 -14 38 -65
46 -84 12z"/>
<path d="M11896 6954 c-30 -30 -10 -74 34 -74 37 0 54 28 40 64 -11 30 -49 35
-74 10z"/>
<path d="M12204 6962 c-18 -12 -24 -42 -14 -63 21 -39 90 -16 90 30 0 28 -50
51 -76 33z"/>
<path d="M12496 6949 c-22 -32 -6 -63 33 -67 25 -3 33 2 42 21 24 54 -41 94
-75 46z"/>
<path d="M11152 6814 c-12 -8 -22 -25 -22 -38 0 -24 28 -56 48 -56 17 0 52 37
52 55 0 16 -34 55 -48 55 -4 0 -18 -7 -30 -16z"/>
<path d="M10836 6804 c-19 -49 17 -91 60 -72 26 12 33 55 12 76 -17 17 -65 15
-72 -4z"/>
<path d="M11440 6805 c-16 -19 -5 -62 20 -75 35 -19 67 13 60 60 -4 31 -58 41
-80 15z"/>
<path d="M11742 6808 c-16 -16 -15 -53 2 -67 8 -7 27 -11 43 -9 34 4 54 47 33
72 -15 19 -61 21 -78 4z"/>
<path d="M12040 6800 c-14 -26 -6 -51 20 -68 42 -26 93 41 58 76 -20 20 -66
15 -78 -8z"/>
<path d="M12340 6805 c-17 -21 -5 -60 24 -73 45 -20 89 41 54 76 -17 17 -63
15 -78 -3z"/>
<path d="M12647 6813 c-4 -3 -7 -21 -7 -38 0 -24 6 -35 24 -43 45 -20 89 41
54 76 -13 13 -60 16 -71 5z"/>
<path d="M11002 6664 c-24 -17 -29 -53 -10 -72 33 -33 99 10 77 49 -16 31 -43
40 -67 23z"/>
<path d="M11304 6672 c-6 -4 -16 -17 -23 -30 -10 -19 -8 -26 13 -46 28 -29 62
-25 78 10 20 43 -31 91 -68 66z"/>
<path d="M11600 6660 c-23 -23 -24 -33 -10 -61 14 -26 66 -26 80 0 11 22 4 50
-19 68 -22 17 -28 16 -51 -7z"/>
<path d="M11900 6660 c-23 -23 -24 -33 -10 -61 21 -39 90 -16 90 30 0 12 -40
51 -52 51 -4 0 -17 -9 -28 -20z"/>
<path d="M12213 6667 c-28 -12 -35 -31 -23 -62 19 -51 102 -19 86 33 -9 27
-38 41 -63 29z"/>
<path d="M12506 6665 c-22 -16 -25 -63 -5 -76 55 -35 105 25 59 71 -24 24 -29
24 -54 5z"/>
<path d="M11452 6514 c-28 -19 -28 -55 -1 -80 19 -17 23 -17 47 -3 34 19 39
52 13 78 -25 25 -30 26 -59 5z"/>
<path d="M10842 6508 c-28 -28 -7 -78 33 -78 29 0 45 19 45 51 0 37 -51 54
-78 27z"/>
<path d="M11142 6508 c-28 -28 -7 -78 33 -78 23 0 55 28 55 48 0 33 -63 55
-88 30z"/>
<path d="M11739 6499 c-18 -34 3 -69 41 -69 22 0 33 6 41 24 16 35 -3 66 -41
66 -20 0 -33 -7 -41 -21z"/>
<path d="M12040 6500 c-24 -45 22 -85 69 -60 23 12 26 31 11 61 -15 26 -66 26
-80 -1z"/>
<path d="M12340 6500 c-15 -29 -3 -59 26 -66 48 -12 76 18 56 62 -15 31 -66
34 -82 4z"/>
<path d="M12642 6496 c-8 -18 -7 -28 4 -45 27 -38 84 -22 84 24 0 48 -68 64
-88 21z"/>
<path d="M10992 6358 c-16 -16 -15 -53 2 -68 21 -16 56 -9 72 15 27 41 -39 88
-74 53z"/>
<path d="M11292 6358 c-7 -7 -12 -21 -12 -33 0 -29 19 -45 52 -45 34 0 55 39
38 71 -12 22 -59 26 -78 7z"/>
<path d="M11586 6354 c-18 -46 13 -85 58 -77 28 6 42 44 26 73 -13 25 -75 28
-84 4z"/>
<path d="M11896 6354 c-19 -18 -20 -28 -6 -55 16 -29 67 -26 81 5 23 50 -36
90 -75 50z"/>
<path d="M12204 6362 c-18 -12 -24 -42 -14 -63 16 -29 67 -26 81 5 21 44 -27
86 -67 58z"/>
<path d="M12504 6362 c-35 -24 -18 -82 24 -82 33 0 52 16 52 45 0 37 -44 59
-76 37z"/>
<path d="M11752 6214 c-50 -35 -5 -108 52 -83 34 16 36 61 4 83 -12 9 -25 16
-28 16 -3 0 -16 -7 -28 -16z"/>
<path d="M10841 6206 c-16 -19 -11 -56 10 -69 9 -5 28 -7 43 -3 24 6 27 11 24
44 -3 33 -6 37 -34 40 -18 2 -36 -3 -43 -12z"/>
<path d="M11142 6208 c-35 -35 9 -96 54 -76 29 14 36 31 24 63 -7 19 -17 25
-38 25 -15 0 -33 -5 -40 -12z"/>
<path d="M11440 6206 c-15 -19 -9 -56 11 -69 41 -26 91 22 68 65 -12 22 -61
24 -79 4z"/>
<path d="M12040 6200 c-22 -41 13 -80 59 -65 48 15 31 85 -19 85 -19 0 -33 -7
-40 -20z"/>
<path d="M12340 6200 c-22 -42 13 -80 60 -65 25 8 37 50 20 70 -19 22 -67 19
-80 -5z"/>
<path d="M12647 6213 c-4 -3 -7 -21 -7 -39 0 -28 4 -35 27 -40 14 -4 33 -2 42
3 20 13 26 50 11 69 -13 14 -61 19 -73 7z"/>
<path d="M11002 6064 c-24 -17 -29 -53 -10 -72 34 -34 98 10 76 52 -20 38 -34
43 -66 20z"/>
<path d="M11299 6059 c-36 -36 -18 -79 33 -79 34 0 52 29 39 63 -13 33 -47 41
-72 16z"/>
<path d="M11600 6060 c-23 -23 -24 -33 -10 -61 21 -39 90 -16 90 30 0 14 -37
51 -50 51 -5 0 -19 -9 -30 -20z"/>
<path d="M11891 6054 c-16 -20 -18 -31 -11 -45 16 -30 43 -39 71 -26 30 15 36
52 13 78 -24 26 -49 24 -73 -7z"/>
<path d="M12206 6065 c-22 -16 -25 -63 -5 -76 24 -15 58 -10 69 10 14 28 13
38 -10 61 -24 24 -29 24 -54 5z"/>
<path d="M12501 6054 c-26 -34 -15 -68 25 -72 49 -6 70 42 34 78 -26 26 -34
25 -59 -6z"/>
<path d="M12052 5914 c-28 -19 -28 -55 -1 -80 19 -17 23 -17 47 -3 36 20 41
61 10 83 -28 20 -28 20 -56 0z"/>
<path d="M10840 5906 c-15 -19 -9 -56 11 -69 9 -5 28 -7 42 -3 48 12 32 86
-19 86 -12 0 -27 -7 -34 -14z"/>
<path d="M11142 5908 c-28 -28 -7 -78 33 -78 23 0 55 28 55 48 0 33 -63 55
-88 30z"/>
<path d="M11442 5908 c-29 -29 -7 -78 34 -78 25 0 54 24 54 45 0 36 -62 59
-88 33z"/>
<path d="M11739 5899 c-18 -34 3 -69 41 -69 22 0 33 6 41 24 16 35 -3 66 -41
66 -20 0 -33 -7 -41 -21z"/>
<path d="M12346 5904 c-31 -30 -5 -78 40 -72 37 4 51 29 36 62 -13 30 -51 35
-76 10z"/>
<path d="M10992 5758 c-7 -7 -12 -21 -12 -33 0 -48 59 -62 86 -20 16 24 16 27
-1 45 -20 22 -55 26 -73 8z"/>
<path d="M11292 5758 c-7 -7 -12 -21 -12 -33 0 -29 19 -45 52 -45 34 0 55 39
38 71 -12 22 -59 26 -78 7z"/>
<path d="M11589 5749 c-18 -34 3 -69 41 -69 24 0 33 6 40 26 13 32 13 30 -6
48 -22 23 -61 20 -75 -5z"/>
<path d="M11904 5762 c-18 -12 -24 -42 -14 -63 16 -29 67 -26 81 5 21 44 -27
86 -67 58z"/>
<path d="M12189 5749 c-8 -16 -8 -28 0 -46 9 -19 17 -24 43 -21 37 4 53 26 44
61 -5 23 -12 27 -41 27 -25 0 -37 -6 -46 -21z"/>
<path d="M12491 5748 c-12 -32 -2 -57 25 -64 34 -9 52 1 60 31 8 33 -11 55
-48 55 -20 0 -31 -6 -37 -22z"/>
<path d="M12352 5614 c-30 -21 -29 -59 3 -80 23 -15 27 -15 50 0 32 21 33 59
3 80 -12 9 -25 16 -28 16 -3 0 -16 -7 -28 -16z"/>
<path d="M10834 5596 c-12 -49 13 -74 62 -62 22 6 25 11 22 44 -3 35 -5 37
-40 40 -33 3 -38 0 -44 -22z"/>
<path d="M11142 5608 c-29 -29 -7 -78 34 -78 25 0 54 24 54 45 0 36 -62 59
-88 33z"/>
<path d="M11442 5608 c-34 -34 4 -86 54 -74 23 6 29 21 24 56 -4 29 -55 41
-78 18z"/>
<path d="M11740 5599 c-19 -34 2 -69 40 -69 36 0 61 40 43 68 -16 27 -69 28
-83 1z"/>
<path d="M12040 5600 c-24 -45 22 -85 69 -60 23 12 28 49 9 68 -20 20 -66 15
-78 -8z"/>
<path d="M11620 5472 c-19 -5 -40 -32 -40 -49 0 -7 9 -22 20 -33 16 -16 24
-18 44 -8 31 13 38 31 26 62 -9 26 -27 36 -50 28z"/>
<path d="M12490 5453 c-24 -31 -23 -40 11 -65 30 -22 62 -15 79 17 11 20 10
28 -4 50 -22 33 -58 33 -86 -2z"/>
<path d="M10990 5456 c-17 -21 -9 -56 17 -73 20 -14 24 -13 48 11 22 22 24 28
13 51 -13 29 -57 35 -78 11z"/>
<path d="M11290 5456 c-17 -21 -9 -56 16 -73 20 -13 25 -12 50 10 25 22 27 27
16 51 -9 19 -19 26 -41 26 -16 0 -34 -7 -41 -14z"/>
<path d="M11889 5449 c-26 -50 35 -93 75 -53 19 18 20 28 6 55 -15 27 -66 26
-81 -2z"/>
<path d="M12191 5448 c-17 -47 7 -76 53 -64 52 13 40 86 -15 86 -21 0 -32 -6
-38 -22z"/>
<path d="M12352 5314 c-30 -21 -29 -59 3 -80 23 -15 27 -15 50 0 30 20 34 62
8 82 -23 17 -34 17 -61 -2z"/>
<path d="M10842 5308 c-27 -27 -10 -78 27 -78 34 0 51 17 51 51 0 37 -51 54
-78 27z"/>
<path d="M11140 5304 c-23 -27 -1 -68 38 -72 27 -3 34 1 42 23 13 33 13 31 -6
49 -20 20 -58 20 -74 0z"/>
<path d="M11442 5308 c-7 -7 -12 -21 -12 -33 0 -29 19 -45 52 -45 21 0 31 6
38 26 13 32 13 30 -6 48 -18 19 -55 21 -72 4z"/>
<path d="M11740 5304 c-10 -11 -11 -23 -4 -42 17 -49 94 -37 94 14 0 38 -66
58 -90 28z"/>
<path d="M12046 5304 c-32 -32 -7 -78 39 -72 40 4 60 53 30 74 -25 18 -50 18
-69 -2z"/>
<path d="M12201 5161 c-24 -24 -25 -34 -11 -62 7 -13 21 -19 44 -19 48 0 65
46 32 86 -1 1 -11 5 -23 8 -15 5 -28 1 -42 -13z"/>
<path d="M10992 5158 c-30 -30 -3 -83 39 -76 29 4 43 29 35 61 -5 21 -12 27
-34 27 -15 0 -33 -5 -40 -12z"/>
<path d="M11292 5158 c-7 -7 -12 -21 -12 -33 0 -29 19 -45 52 -45 34 0 55 39
38 71 -12 22 -59 26 -78 7z"/>
<path d="M11589 5149 c-27 -51 36 -93 75 -50 13 14 14 24 7 45 -14 34 -64 37
-82 5z"/>
<path d="M11889 5149 c-18 -34 3 -69 41 -69 22 0 33 6 41 24 16 35 -3 66 -41
66 -20 0 -33 -7 -41 -21z"/>
<path d="M12052 5014 c-30 -21 -29 -59 3 -80 23 -15 27 -15 50 0 32 21 33 59
3 80 -12 9 -25 16 -28 16 -3 0 -16 -7 -28 -16z"/>
<path d="M10834 4995 c-12 -48 13 -73 61 -61 20 5 25 12 25 40 0 36 -12 46
-56 46 -17 0 -25 -7 -30 -25z"/>
<path d="M11140 5004 c-19 -22 -1 -68 29 -72 31 -5 63 25 55 52 -12 38 -60 50
-84 20z"/>
<path d="M11440 5005 c-19 -23 -4 -64 26 -71 19 -5 31 -1 47 14 18 18 19 25 9
47 -13 29 -61 35 -82 10z"/>
<path d="M11739 4999 c-26 -50 35 -93 75 -53 19 18 20 28 6 55 -15 27 -66 26
-81 -2z"/>
<path d="M12340 5000 c-22 -41 20 -84 65 -67 20 8 30 54 15 72 -19 22 -67 19
-80 -5z"/>
<path d="M11001 4864 c-28 -20 -25 -61 6 -81 20 -14 24 -13 48 11 21 21 24 29
15 46 -17 32 -44 41 -69 24z"/>
<path d="M11908 4869 c-34 -19 -39 -45 -17 -73 25 -32 53 -33 73 -4 21 30 20
44 -4 68 -23 23 -28 24 -52 9z"/>
<path d="M11292 4858 c-35 -35 9 -96 54 -76 29 13 39 41 24 68 -12 23 -58 28
-78 8z"/>
<path d="M11590 4855 c-16 -19 -5 -62 20 -75 39 -21 81 31 59 72 -12 22 -61
24 -79 3z"/>
<path d="M12191 4852 c-23 -43 21 -93 59 -70 26 17 34 42 20 68 -14 26 -65 27
-79 2z"/>
<path d="M11451 4713 c-26 -17 -25 -60 0 -76 22 -14 67 -1 71 21 11 48 -33 82
-71 55z"/>
<path d="M11747 4712 c-24 -27 -21 -59 8 -78 23 -15 27 -15 50 0 32 21 33 59
3 80 -29 21 -41 20 -61 -2z"/>
<path d="M12050 4710 c-23 -23 -24 -33 -10 -61 21 -38 90 -14 90 31 0 17 -34
50 -52 50 -5 0 -17 -9 -28 -20z"/>
<path d="M11142 4708 c-28 -28 -7 -78 33 -78 32 0 48 15 48 45 0 41 -52 62
-81 33z"/>
<path d="M11602 4565 c-24 -17 -29 -54 -10 -73 19 -19 66 -15 78 8 11 20 4 70
-10 70 -5 0 -14 2 -22 5 -7 3 -23 -2 -36 -10z"/>
<path d="M10992 4558 c-7 -7 -12 -21 -12 -33 0 -46 57 -62 84 -24 31 45 -33
96 -72 57z"/>
<path d="M11290 4556 c-19 -24 -8 -60 23 -70 23 -8 31 -6 49 12 19 18 20 25
10 47 -13 29 -61 35 -82 11z"/>
<path d="M11890 4551 c-5 -11 -10 -24 -10 -30 0 -18 31 -41 56 -41 30 0 50 41
34 71 -14 26 -66 26 -80 0z"/>
<path d="M11148 4411 c-19 -16 -21 -23 -13 -47 13 -36 53 -44 79 -15 22 24 14
54 -19 69 -19 9 -28 8 -47 -7z"/>
<path d="M11447 4412 c-23 -26 -21 -58 5 -76 12 -9 26 -16 30 -16 14 0 48 39
48 55 0 19 -35 55 -53 55 -8 0 -21 -8 -30 -18z"/>
<path d="M11739 4399 c-18 -34 3 -69 41 -69 22 0 33 6 41 24 16 35 -3 66 -41
66 -20 0 -33 -7 -41 -21z"/>
<path d="M11309 4273 c-23 -5 -39 -45 -28 -66 16 -27 46 -39 68 -27 56 29 22
106 -40 93z"/>
<path d="M11598 4261 c-16 -14 -19 -24 -14 -45 4 -15 13 -29 21 -33 26 -9 62
6 68 29 13 48 -36 80 -75 49z"/>
<path d="M10992 4258 c-33 -33 10 -99 50 -77 24 13 32 33 24 64 -5 19 -13 25
-34 25 -15 0 -33 -5 -40 -12z"/>
<path d="M10851 4113 c-15 -10 -21 -23 -19 -40 4 -33 27 -48 61 -39 23 5 27
12 27 40 0 43 -36 63 -69 39z"/>
<path d="M11147 4112 c-24 -27 -21 -59 8 -78 23 -15 27 -15 50 0 32 21 33 59
3 80 -29 21 -41 20 -61 -2z"/>
<path d="M11452 4114 c-24 -17 -29 -53 -10 -72 26 -26 88 -3 88 33 0 14 -38
55 -50 55 -3 0 -16 -7 -28 -16z"/>
<path d="M11006 3971 c-39 -15 -40 -75 -2 -88 28 -9 47 -5 63 15 18 24 16 39
-7 62 -22 22 -25 22 -54 11z"/>
<path d="M11290 3956 c-15 -19 -9 -56 11 -69 9 -5 28 -7 42 -3 52 13 42 86
-12 86 -16 0 -34 -7 -41 -14z"/>
<path d="M10848 3816 c-18 -13 -23 -42 -12 -70 6 -16 50 -22 70 -8 24 15 26
50 5 71 -24 24 -39 26 -63 7z"/>
<path d="M11148 3810 c-19 -15 -21 -22 -13 -46 13 -37 53 -44 80 -14 39 43
-22 97 -67 60z"/>
<path d="M10992 3658 c-7 -7 -12 -21 -12 -33 0 -48 58 -62 85 -21 14 20 14 28
3 45 -14 23 -57 28 -76 9z"/>
<path d="M5172 6293 c-21 -8 -34 -51 -22 -74 15 -26 75 -26 90 0 14 27 13 34
-10 59 -21 22 -33 25 -58 15z"/>
<path d="M5323 6139 c-41 -15 -40 -66 1 -89 43 -23 83 18 65 66 -9 25 -36 34
-66 23z"/>
<path d="M5162 5978 c-7 -7 -12 -21 -12 -33 0 -12 5 -26 12 -33 7 -7 21 -12
33 -12 12 0 26 5 33 12 7 7 12 21 12 33 0 12 -5 26 -12 33 -7 7 -21 12 -33 12
-12 0 -26 -5 -33 -12z"/>
<path d="M5305 5820 c-17 -18 -17 -21 -1 -45 27 -42 86 -28 86 20 0 45 -53 61
-85 25z"/>
<path d="M5462 5678 c-16 -16 -15 -53 2 -68 21 -16 56 -9 72 15 27 41 -39 88
-74 53z"/>
<path d="M5306 5521 c-14 -15 -15 -24 -7 -40 26 -49 91 -43 91 9 0 49 -51 68
-84 31z"/>
<path d="M5606 5524 c-19 -49 17 -91 60 -72 26 12 33 55 12 76 -17 17 -65 15
-72 -4z"/>
<path d="M5467 5382 c-10 -10 -17 -28 -17 -39 0 -45 60 -57 87 -17 12 18 11
24 -8 47 -24 32 -40 34 -62 9z"/>
<path d="M5612 5228 c-7 -7 -12 -21 -12 -33 0 -12 5 -26 12 -33 7 -7 21 -12
33 -12 29 0 45 19 45 51 0 37 -51 54 -78 27z"/>
<path d="M5462 5078 c-30 -30 -3 -83 39 -76 29 4 43 29 35 61 -5 21 -12 27
-34 27 -15 0 -33 -5 -40 -12z"/>
<path d="M5762 5078 c-16 -16 -15 -53 2 -68 21 -16 56 -9 72 15 27 41 -39 88
-74 53z"/>
<path d="M5611 4926 c-16 -19 -11 -56 10 -69 9 -5 28 -7 43 -3 24 6 27 11 24
44 -3 33 -6 37 -34 40 -18 2 -36 -3 -43 -12z"/>
<path d="M5912 4928 c-35 -35 9 -96 54 -76 29 14 36 31 24 63 -7 19 -17 25
-38 25 -15 0 -33 -5 -40 -12z"/>
<path d="M5772 4784 c-24 -17 -29 -53 -10 -72 34 -34 98 10 76 52 -20 38 -34
43 -66 20z"/>
<path d="M6069 4779 c-36 -36 -18 -79 33 -79 34 0 52 29 39 63 -13 33 -47 41
-72 16z"/>
<path d="M5610 4626 c-15 -19 -9 -56 11 -69 9 -5 28 -7 42 -3 48 12 32 86 -19
86 -12 0 -27 -7 -34 -14z"/>
<path d="M5912 4628 c-28 -28 -7 -78 33 -78 23 0 55 28 55 48 0 33 -63 55 -88
30z"/>
<path d="M5762 4478 c-7 -7 -12 -21 -12 -33 0 -48 59 -62 86 -20 16 24 16 27
-1 45 -20 22 -55 26 -73 8z"/>
<path d="M6062 4478 c-7 -7 -12 -21 -12 -33 0 -29 19 -45 52 -45 34 0 55 39
38 71 -12 22 -59 26 -78 7z"/>
<path d="M5912 4328 c-29 -29 -7 -78 34 -78 25 0 54 24 54 45 0 36 -62 59 -88
33z"/>
<path d="M6212 4328 c-34 -34 4 -86 54 -74 23 6 29 21 24 56 -4 29 -55 41 -78
18z"/>
<path d="M6390 4192 c-19 -5 -40 -32 -40 -49 0 -7 9 -22 20 -33 16 -16 24 -18
44 -8 31 13 38 31 26 62 -9 26 -27 36 -50 28z"/>
<path d="M6060 4176 c-17 -21 -9 -56 16 -73 20 -13 25 -12 50 10 25 22 27 27
16 51 -9 19 -19 26 -41 26 -16 0 -34 -7 -41 -14z"/>
<path d="M5910 4024 c-23 -27 -1 -68 38 -72 27 -3 34 1 42 23 13 33 13 31 -6
49 -20 20 -58 20 -74 0z"/>
<path d="M6212 4028 c-7 -7 -12 -21 -12 -33 0 -29 19 -45 52 -45 21 0 31 6 38
26 13 32 13 30 -6 48 -18 19 -55 21 -72 4z"/>
<path d="M6510 4024 c-10 -11 -11 -23 -4 -42 17 -49 94 -37 94 14 0 38 -66 58
-90 28z"/>
<path d="M6062 3878 c-7 -7 -12 -21 -12 -33 0 -29 19 -45 52 -45 34 0 55 39
38 71 -12 22 -59 26 -78 7z"/>
<path d="M6359 3869 c-27 -51 36 -93 75 -50 13 14 14 24 7 45 -14 34 -64 37
-82 5z"/>
<path d="M6659 3869 c-18 -34 3 -69 41 -69 22 0 33 6 41 24 16 35 -3 66 -41
66 -20 0 -33 -7 -41 -21z"/>
<path d="M6822 3734 c-30 -21 -29 -59 3 -80 23 -15 27 -15 50 0 32 21 33 59 3
80 -12 9 -25 16 -28 16 -3 0 -16 -7 -28 -16z"/>
<path d="M6210 3725 c-19 -23 -4 -64 26 -71 19 -5 31 -1 47 14 18 18 19 25 9
47 -13 29 -61 35 -82 10z"/>
<path d="M6509 3719 c-26 -50 35 -93 75 -53 19 18 20 28 6 55 -15 27 -66 26
-81 -2z"/>
<path d="M6678 3589 c-34 -19 -39 -45 -17 -73 25 -32 53 -33 73 -4 21 30 20
44 -4 68 -23 23 -28 24 -52 9z"/>
<path d="M6360 3575 c-16 -19 -5 -62 20 -75 39 -21 81 31 59 72 -12 22 -61 24
-79 3z"/>
<path d="M6961 3572 c-23 -43 21 -93 59 -70 26 17 34 42 20 68 -14 26 -65 27
-79 2z"/>
<path d="M6517 3432 c-24 -27 -21 -59 8 -78 23 -15 27 -15 50 0 32 21 33 59 3
80 -29 21 -41 20 -61 -2z"/>
<path d="M6820 3430 c-23 -23 -24 -33 -10 -61 21 -38 90 -14 90 31 0 17 -34
50 -52 50 -5 0 -17 -9 -28 -20z"/>
<path d="M7120 3430 c-23 -23 -24 -33 -10 -61 12 -22 59 -26 78 -7 16 16 15
53 0 65 -28 21 -49 22 -68 3z"/>
<path d="M6660 3271 c-5 -11 -10 -24 -10 -30 0 -18 31 -41 56 -41 30 0 50 41
34 71 -14 26 -66 26 -80 0z"/>
<path d="M6960 3271 c-10 -21 -4 -51 14 -63 41 -28 90 17 67 61 -15 28 -66 29
-81 2z"/>
<path d="M6810 3120 c-22 -42 13 -80 60 -65 25 8 37 50 20 70 -19 22 -67 19
-80 -5z"/>
<path d="M7110 3120 c-22 -42 13 -80 60 -65 25 8 37 50 20 70 -19 22 -67 19
-80 -5z"/>
<path d="M7286 2991 c-40 -15 -40 -71 0 -90 50 -22 86 55 39 84 -11 7 -28 10
-39 6z"/>
<path d="M6960 2965 c-12 -31 -4 -52 21 -60 27 -9 57 3 64 25 17 54 -65 88
-85 35z"/>
<path d="M7120 2830 c-25 -25 -25 -42 -1 -64 28 -25 64 -17 76 18 8 24 6 31
-14 47 -29 24 -36 24 -61 -1z"/>
<path d="M7433 2838 c-40 -19 -36 -74 5 -85 34 -8 57 8 57 42 0 36 -31 57 -62
43z"/>
<path d="M7561 2668 c-17 -45 39 -87 75 -58 17 15 18 52 2 68 -21 21 -68 15
-77 -10z"/>
<path d="M7856 2652 c-9 -14 24 -52 44 -52 22 0 17 27 -9 47 -19 15 -28 16
-35 5z"/>
<path d="M792 5841 c-8 -5 -12 -22 -10 -42 3 -29 7 -34 31 -37 34 -4 57 13 57
42 0 39 -43 60 -78 37z"/>
<path d="M1098 5839 c-21 -12 -24 -49 -6 -67 28 -28 78 -7 78 33 0 40 -35 56
-72 34z"/>
<path d="M653 5699 c-26 -10 -38 -42 -24 -68 14 -26 45 -35 71 -21 17 9 20 19
18 47 -3 40 -28 56 -65 42z"/>
<path d="M937 5682 c-22 -24 -21 -35 1 -55 35 -32 82 -15 82 28 0 44 -52 61
-83 27z"/>
<path d="M1240 5686 c-15 -19 -9 -56 11 -69 9 -5 28 -7 42 -3 23 5 27 12 27
40 0 34 -13 46 -50 46 -9 0 -23 -7 -30 -14z"/>
<path d="M802 5553 c-21 -8 -34 -51 -22 -74 15 -26 75 -26 90 0 14 27 13 34
-10 59 -21 22 -33 25 -58 15z"/>
<path d="M1092 5538 c-16 -16 -15 -53 2 -68 21 -16 56 -9 72 15 27 41 -39 88
-74 53z"/>
<path d="M1392 5538 c-7 -7 -12 -21 -12 -33 0 -29 19 -45 52 -45 17 0 31 7 38
21 24 43 -43 92 -78 57z"/>
<path d="M953 5399 c-41 -15 -40 -66 1 -89 43 -23 83 18 65 66 -9 25 -36 34
-66 23z"/>
<path d="M636 5378 c-17 -24 -8 -51 23 -67 39 -22 82 44 49 77 -19 19 -55 14
-72 -10z"/>
<path d="M1242 5388 c-35 -35 9 -96 54 -76 43 20 27 88 -21 88 -12 0 -26 -5
-33 -12z"/>
<path d="M1096 5247 c-20 -15 -25 -62 -8 -79 14 -14 59 -13 77 2 21 17 19 46
-5 70 -23 23 -39 25 -64 7z"/>
<path d="M1403 5247 c-25 -11 -32 -54 -11 -75 21 -21 64 -14 75 11 19 42 -22
83 -64 64z"/>
<path d="M792 5238 c-15 -15 -15 -51 0 -66 28 -28 78 -7 78 33 0 27 -18 45
-45 45 -12 0 -26 -5 -33 -12z"/>
<path d="M1260 5102 c-21 -7 -30 -23 -30 -53 0 -33 38 -56 68 -40 53 28 20
112 -38 93z"/>
<path d="M935 5080 c-17 -18 -17 -21 -1 -45 27 -42 86 -28 86 20 0 45 -53 61
-85 25z"/>
<path d="M1540 5085 c-16 -19 -5 -62 19 -74 14 -8 25 -6 45 10 31 24 33 40 8
62 -23 21 -56 22 -72 2z"/>
<path d="M1403 4948 c-25 -12 -33 -35 -22 -66 16 -43 99 -24 99 23 0 13 -37
55 -48 54 -4 0 -17 -5 -29 -11z"/>
<path d="M1092 4938 c-16 -16 -15 -53 2 -68 21 -16 56 -9 72 15 27 41 -39 88
-74 53z"/>
<path d="M1692 4938 c-7 -7 -12 -21 -12 -33 0 -29 19 -45 52 -45 44 0 60 57
24 82 -17 12 -51 9 -64 -4z"/>
<path d="M1552 4794 c-12 -8 -22 -25 -22 -38 0 -24 28 -56 48 -56 17 0 52 37
52 55 0 16 -34 55 -48 55 -4 0 -18 -7 -30 -16z"/>
<path d="M936 4781 c-14 -15 -15 -24 -7 -40 26 -49 91 -43 91 9 0 49 -51 68
-84 31z"/>
<path d="M1236 4784 c-19 -49 17 -91 60 -72 26 12 33 55 12 76 -17 17 -65 15
-72 -4z"/>
<path d="M1840 4785 c-16 -19 -5 -62 20 -75 35 -19 67 13 60 60 -4 31 -58 41
-80 15z"/>
<path d="M1097 4642 c-10 -10 -17 -28 -17 -39 0 -45 60 -57 87 -17 12 18 11
24 -8 47 -24 32 -40 34 -62 9z"/>
<path d="M1402 4644 c-24 -17 -29 -53 -10 -72 33 -33 99 10 77 49 -16 31 -43
40 -67 23z"/>
<path d="M1704 4652 c-6 -4 -16 -17 -23 -30 -10 -19 -8 -26 13 -46 28 -29 62
-25 78 10 20 43 -31 91 -68 66z"/>
<path d="M1852 4494 c-28 -19 -28 -55 -1 -80 19 -17 23 -17 47 -3 34 19 39 52
13 78 -25 25 -30 26 -59 5z"/>
<path d="M1242 4488 c-28 -28 -7 -78 33 -78 29 0 45 19 45 51 0 37 -51 54 -78
27z"/>
<path d="M1542 4488 c-28 -28 -7 -78 33 -78 23 0 55 28 55 48 0 33 -63 55 -88
30z"/>
<path d="M1392 4338 c-16 -16 -15 -53 2 -68 21 -16 56 -9 72 15 27 41 -39 88
-74 53z"/>
<path d="M1692 4338 c-7 -7 -12 -21 -12 -33 0 -29 19 -45 52 -45 34 0 55 39
38 71 -12 22 -59 26 -78 7z"/>
<path d="M1986 4334 c-18 -46 13 -85 58 -77 28 6 42 44 26 73 -13 25 -75 28
-84 4z"/>
<path d="M2152 4194 c-50 -35 -5 -108 52 -83 34 16 36 61 4 83 -12 9 -25 16
-28 16 -3 0 -16 -7 -28 -16z"/>
<path d="M1542 4188 c-35 -35 9 -96 54 -76 29 14 36 31 24 63 -7 19 -17 25
-38 25 -15 0 -33 -5 -40 -12z"/>
<path d="M1840 4186 c-15 -19 -9 -56 11 -69 41 -26 91 22 68 65 -12 22 -61 24
-79 4z"/>
<path d="M1699 4039 c-36 -36 -18 -79 33 -79 34 0 52 29 39 63 -13 33 -47 41
-72 16z"/>
<path d="M2000 4040 c-23 -23 -24 -33 -10 -61 21 -39 90 -16 90 30 0 14 -37
51 -50 51 -5 0 -19 -9 -30 -20z"/>
<path d="M2291 4034 c-16 -20 -18 -31 -11 -45 16 -30 43 -39 71 -26 30 15 36
52 13 78 -24 26 -49 24 -73 -7z"/>
<path d="M2452 3894 c-28 -19 -28 -55 -1 -80 19 -17 23 -17 47 -3 36 20 41 61
10 83 -28 20 -28 20 -56 0z"/>
<path d="M1842 3888 c-29 -29 -7 -78 34 -78 25 0 54 24 54 45 0 36 -62 59 -88
33z"/>
<path d="M2139 3879 c-18 -34 3 -69 41 -69 38 0 59 35 41 69 -16 29 -66 29
-82 0z"/>
<path d="M1692 3738 c-7 -7 -12 -21 -12 -33 0 -29 19 -45 52 -45 34 0 55 39
38 71 -12 22 -59 26 -78 7z"/>
<path d="M1989 3729 c-18 -34 3 -69 41 -69 24 0 33 6 40 26 13 32 13 30 -6 48
-22 23 -61 20 -75 -5z"/>
<path d="M2304 3742 c-18 -12 -24 -42 -14 -63 16 -29 67 -26 81 5 21 44 -27
86 -67 58z"/>
<path d="M2589 3729 c-8 -16 -8 -28 0 -46 9 -19 17 -24 43 -21 37 4 53 26 44
61 -5 23 -12 27 -41 27 -25 0 -37 -6 -46 -21z"/>
<path d="M1842 3588 c-34 -34 4 -86 54 -74 23 6 29 21 24 56 -4 29 -55 41 -78
18z"/>
<path d="M2140 3579 c-19 -34 2 -69 40 -69 36 0 61 40 43 68 -16 27 -69 28
-83 1z"/>
<path d="M2440 3580 c-24 -45 22 -85 69 -60 23 12 28 49 9 68 -20 20 -66 15
-78 -8z"/>
<path d="M2020 3452 c-19 -5 -40 -32 -40 -49 0 -7 9 -22 20 -33 16 -16 24 -18
44 -8 31 13 38 31 26 62 -9 26 -27 36 -50 28z"/>
<path d="M2289 3429 c-26 -50 35 -93 75 -53 19 18 20 28 6 55 -15 27 -66 26
-81 -2z"/>
<path d="M2591 3428 c-17 -47 7 -76 53 -64 52 13 40 86 -15 86 -21 0 -32 -6
-38 -22z"/>
<path d="M2752 3294 c-30 -21 -29 -59 3 -80 23 -15 27 -15 50 0 30 20 34 62 8
82 -23 17 -34 17 -61 -2z"/>
<path d="M2140 3284 c-10 -11 -11 -23 -4 -42 17 -49 94 -37 94 14 0 38 -66 58
-90 28z"/>
<path d="M2446 3284 c-32 -32 -7 -78 39 -72 40 4 60 53 30 74 -25 18 -50 18
-69 -2z"/>
<path d="M2601 3141 c-24 -24 -25 -34 -11 -62 7 -13 21 -19 44 -19 48 0 65 46
32 86 -1 1 -11 5 -23 8 -15 5 -28 1 -42 -13z"/>
<path d="M2289 3129 c-18 -34 3 -69 41 -69 38 0 59 35 41 69 -16 29 -66 29
-82 0z"/>
<path d="M2891 3128 c-12 -32 -2 -57 25 -64 48 -12 75 18 56 62 -16 33 -69 34
-81 2z"/>
<path d="M2452 2994 c-30 -21 -29 -59 3 -80 23 -15 27 -15 50 0 32 21 33 59 3
80 -12 9 -25 16 -28 16 -3 0 -16 -7 -28 -16z"/>
<path d="M3038 2985 c-9 -19 -8 -29 6 -50 18 -27 36 -31 67 -15 22 12 26 59 7
78 -22 22 -67 14 -80 -13z"/>
<path d="M2740 2980 c-22 -41 20 -84 65 -67 20 8 30 54 15 72 -19 22 -67 19
-80 -5z"/>
<path d="M2914 2850 c-39 -15 -40 -65 -3 -88 25 -16 57 0 65 33 10 40 -23 69
-62 55z"/>
<path d="M3190 2834 c-11 -29 0 -58 29 -73 38 -21 81 55 49 87 -7 7 -25 12
-40 12 -21 0 -31 -6 -38 -26z"/>
<path d="M2591 2832 c-23 -43 21 -93 59 -70 26 17 34 42 20 68 -14 26 -65 27
-79 2z"/>
<path d="M2750 2690 c-23 -23 -24 -33 -10 -61 12 -22 59 -26 78 -7 16 16 15
53 0 65 -28 21 -49 22 -68 3z"/>
<path d="M3038 2685 c-9 -19 -8 -29 6 -50 29 -44 86 -28 86 25 0 34 -17 50
-52 50 -20 0 -32 -7 -40 -25z"/>
<path d="M3338 2685 c-9 -19 -8 -29 6 -50 29 -44 86 -28 86 25 0 34 -17 50
-52 50 -20 0 -32 -7 -40 -25z"/>
<path d="M3202 2550 c-39 -36 -19 -90 33 -90 45 0 61 68 23 94 -28 20 -30 20
-56 -4z"/>
<path d="M3513 2558 c-28 -14 -36 -47 -17 -75 16 -25 53 -30 72 -11 18 18 14
63 -6 81 -21 19 -20 19 -49 5z"/>
<path d="M3809 2557 c-25 -20 -31 -48 -14 -73 22 -34 68 -33 84 3 10 23 9 30
-7 52 -22 30 -41 36 -63 18z"/>
<path d="M2891 2528 c-15 -41 14 -74 54 -64 29 7 43 49 25 71 -20 24 -69 19
-79 -7z"/>
<path d="M3954 2396 c-24 -20 -26 -26 -17 -52 10 -31 30 -39 68 -30 45 11 45
74 0 94 -21 10 -29 8 -51 -12z"/>
<path d="M3046 2394 c-20 -19 -20 -34 0 -62 29 -41 84 -23 84 28 0 14 -5 31
-12 38 -17 17 -54 15 -72 -4z"/>
<path d="M3346 2394 c-20 -19 -20 -34 0 -62 29 -41 84 -23 84 28 0 14 -5 31
-12 38 -17 17 -54 15 -72 -4z"/>
<path d="M3644 2389 c-17 -19 -17 -23 -3 -47 27 -49 89 -37 89 17 0 51 -51 69
-86 30z"/>
<path d="M3190 2241 c-24 -45 12 -91 60 -76 24 7 37 51 23 74 -16 25 -69 26
-83 2z"/>
<path d="M3504 2252 c-24 -15 -26 -50 -5 -71 37 -37 81 -21 81 29 0 14 -5 31
-12 38 -13 13 -47 16 -64 4z"/>
<path d="M3791 2239 c-24 -67 55 -112 86 -49 17 34 -3 64 -46 68 -25 3 -33 -1
-40 -19z"/>
<path d="M4095 2236 c-13 -19 -13 -29 -4 -49 20 -44 73 -44 90 0 12 33 12 39
-7 57 -23 24 -61 20 -79 -8z"/>
<path d="M3338 2085 c-9 -19 -8 -29 6 -50 29 -44 86 -28 86 25 0 34 -17 50
-52 50 -20 0 -32 -7 -40 -25z"/>
<path d="M3640 2085 c-11 -20 -10 -28 4 -50 29 -44 86 -28 86 25 0 33 -17 50
-50 50 -18 0 -31 -8 -40 -25z"/>
<path d="M3944 2085 c-15 -23 -15 -27 0 -50 10 -15 26 -25 41 -25 15 0 31 10
41 25 15 23 15 27 0 50 -10 15 -26 25 -41 25 -15 0 -31 -10 -41 -25z"/>
<path d="M4243 2088 c-21 -47 20 -95 64 -75 28 13 39 47 23 76 -16 30 -73 29
-87 -1z"/>
<path d="M3813 1957 c-27 -12 -32 -67 -9 -87 22 -18 59 -8 73 19 21 44 -21 88
-64 68z"/>
<path d="M4117 1959 c-9 -6 -22 -19 -28 -30 -15 -28 13 -69 46 -69 34 0 61 41
45 69 -15 29 -42 41 -63 30z"/>
<path d="M4396 1939 c-27 -40 8 -88 56 -76 30 8 44 47 28 77 -15 27 -64 27
-84 -1z"/>
<path d="M3953 1795 c-27 -23 -27 -25 -13 -52 21 -37 63 -43 84 -11 19 30 11
62 -20 76 -20 10 -28 8 -51 -13z"/>
<path d="M4261 1804 c-23 -17 -28 -63 -9 -82 33 -33 94 8 82 55 -8 31 -47 45
-73 27z"/>
<path d="M4561 1803 c-23 -16 -28 -62 -9 -81 22 -22 67 -14 80 13 23 51 -27
99 -71 68z"/>
<path d="M4861 1804 c-40 -29 -17 -94 33 -94 27 0 51 39 42 67 -10 31 -49 45
-75 27z"/>
<path d="M4096 1638 c-20 -29 -20 -34 4 -58 27 -27 56 -25 76 5 15 23 15 27 0
50 -21 32 -59 33 -80 3z"/>
<path d="M4402 1648 c-20 -20 -15 -66 9 -78 48 -26 95 22 69 70 -12 23 -59 27
-78 8z"/>
<path d="M4703 1648 c-32 -41 -12 -88 38 -88 22 0 32 7 41 25 17 38 -3 75 -41
75 -16 0 -33 -6 -38 -12z"/>
<path d="M5002 1648 c-28 -28 -2 -88 38 -88 22 0 50 26 50 46 0 46 -57 73 -88
42z"/>
<path d="M5299 1639 c-18 -34 3 -69 41 -69 38 0 59 35 41 69 -16 29 -66 29
-82 0z"/>
<path d="M4870 1507 c-19 -10 -25 -20 -25 -47 0 -29 5 -36 28 -44 39 -14 62 2
62 44 0 43 -29 65 -65 47z"/>
<path d="M5462 1504 c-30 -21 -29 -59 3 -80 23 -15 27 -15 50 0 32 21 33 59 3
80 -12 9 -25 16 -28 16 -3 0 -16 -7 -28 -16z"/>
<path d="M4552 1498 c-15 -15 -16 -60 0 -76 18 -18 53 -14 73 8 27 30 10 74
-30 78 -17 2 -36 -3 -43 -10z"/>
<path d="M5152 1498 c-28 -28 -2 -88 38 -88 22 0 50 26 50 46 0 46 -57 73 -88
42z"/>
<path d="M5750 1490 c-22 -41 20 -84 65 -67 20 8 30 54 15 72 -19 22 -67 19
-80 -5z"/>
<path d="M5318 1359 c-34 -19 -39 -45 -17 -73 25 -32 53 -33 73 -4 21 30 20
44 -4 68 -23 23 -28 24 -52 9z"/>
<path d="M5924 1360 c-39 -15 -40 -65 -3 -88 25 -16 57 0 65 33 10 40 -23 69
-62 55z"/>
<path d="M6511 1351 c-25 -25 -26 -39 -5 -69 25 -36 74 -23 88 24 13 45 -49
79 -83 45z"/>
<path d="M6821 1353 c-27 -18 -27 -58 1 -77 37 -26 77 9 64 58 -7 29 -38 38
-65 19z"/>
<path d="M7418 1351 c-42 -34 5 -108 51 -79 24 15 31 37 20 64 -10 29 -44 36
-71 15z"/>
<path d="M7718 1351 c-16 -13 -19 -24 -14 -44 13 -54 66 -56 86 -2 17 45 -33
77 -72 46z"/>
<path d="M5002 1348 c-37 -37 12 -113 57 -88 26 13 36 52 21 79 -12 24 -58 29
-78 9z"/>
<path d="M5600 1341 c-14 -26 -14 -26 14 -56 22 -23 27 -25 45 -13 27 17 35
42 21 68 -14 27 -65 27 -80 1z"/>
<path d="M6213 1352 c-26 -17 -19 -66 12 -80 21 -10 28 -9 45 8 23 23 26 50 8
68 -13 13 -47 16 -65 4z"/>
<path d="M7106 1338 c-17 -24 -8 -51 23 -67 39 -22 82 44 49 77 -19 19 -55 14
-72 -10z"/>
<path d="M5460 1200 c-23 -23 -24 -33 -10 -61 21 -38 90 -14 90 31 0 17 -34
50 -52 50 -5 0 -17 -9 -28 -20z"/>
<path d="M5760 1200 c-23 -23 -24 -33 -10 -61 12 -22 59 -26 78 -7 16 16 15
53 0 65 -28 21 -49 22 -68 3z"/>
<path d="M6073 1207 c-23 -10 -29 -39 -17 -71 8 -20 57 -21 74 -2 30 37 -14
94 -57 73z"/>
<path d="M6364 1196 c-27 -23 -28 -24 -11 -50 21 -32 60 -34 81 -4 17 24 8 51
-24 68 -15 8 -25 5 -46 -14z"/>
<path d="M6668 1207 c-16 -13 -21 -28 -19 -59 2 -26 35 -40 65 -28 20 7 26 16
26 41 0 19 -7 37 -17 45 -22 17 -34 17 -55 1z"/>
<path d="M6972 1204 c-24 -17 -29 -53 -10 -72 34 -34 108 17 78 54 -24 28 -46
34 -68 18z"/>
<path d="M7272 1204 c-24 -17 -29 -53 -10 -72 19 -19 55 -14 72 9 16 23 11 47
-13 66 -21 16 -22 16 -49 -3z"/>
<path d="M7571 1203 c-23 -16 -28 -52 -9 -71 21 -21 67 -15 79 12 22 47 -28
89 -70 59z"/>
<path d="M6830 1064 c-9 -3 -21 -14 -29 -26 -20 -33 3 -68 45 -68 40 0 59 26
45 63 -8 19 -35 42 -44 36 -1 -1 -9 -3 -17 -5z"/>
<path d="M5600 1041 c-10 -21 -4 -51 14 -63 41 -28 90 17 67 61 -15 28 -66 29
-81 2z"/>
<path d="M5901 1038 c-15 -41 14 -74 54 -64 29 7 43 49 25 71 -20 24 -69 19
-79 -7z"/>
<path d="M6201 1038 c-12 -33 -2 -57 27 -65 31 -7 56 7 60 36 5 31 -15 51 -50
51 -20 0 -31 -6 -37 -22z"/>
<path d="M6504 1033 c-8 -32 6 -57 35 -61 28 -4 51 14 51 42 0 30 -18 46 -52
46 -22 0 -29 -6 -34 -27z"/>
<path d="M18560 11561 c-8 -5 -53 -12 -100 -16 -47 -3 -105 -11 -130 -16 -25
-4 -65 -11 -89 -13 -24 -3 -48 -9 -54 -15 -6 -6 -29 -11 -51 -11 -23 0 -54 -7
-70 -15 -15 -8 -39 -15 -52 -15 -13 0 -33 -4 -46 -9 -13 -6 -57 -19 -98 -31
-75 -21 -140 -44 -172 -61 -10 -5 -26 -9 -36 -9 -10 0 -27 -7 -38 -15 -10 -8
-29 -15 -40 -15 -12 0 -27 -7 -34 -15 -7 -8 -19 -15 -26 -15 -12 0 -102 -42
-154 -71 -8 -4 -42 -22 -75 -40 -33 -17 -96 -54 -140 -81 -44 -27 -89 -55
-100 -61 -11 -7 -44 -28 -75 -47 -30 -19 -62 -38 -70 -43 -8 -4 -37 -21 -65
-38 -27 -17 -62 -35 -77 -42 -16 -6 -28 -15 -28 -19 0 -4 -19 -17 -42 -28 -24
-11 -56 -29 -73 -40 -16 -11 -43 -26 -60 -34 -16 -8 -52 -28 -80 -45 -82 -48
-245 -126 -325 -155 -41 -15 -90 -34 -108 -42 -18 -8 -41 -14 -50 -14 -10 0
-22 -4 -28 -10 -5 -5 -46 -19 -89 -30 -44 -11 -87 -24 -96 -29 -9 -5 -38 -12
-65 -16 -27 -3 -58 -11 -69 -16 -34 -16 -295 -61 -405 -70 -58 -4 -132 -12
-165 -16 l-60 -8 -3 -87 c-1 -49 -7 -88 -12 -88 -6 0 -10 -383 -10 -1045 0
-690 3 -1045 10 -1045 15 0 12 -68 -2 -73 -7 -2 -9 -8 -5 -13 11 -11 240 -12
287 -1 19 4 66 10 105 13 38 3 88 10 110 14 22 5 69 16 105 24 36 7 90 19 120
26 30 7 59 16 64 21 6 5 22 9 37 9 15 0 40 6 56 14 15 8 55 22 88 32 33 9 64
20 69 25 6 5 19 9 31 9 11 0 29 6 40 13 11 7 43 21 70 31 52 18 109 43 135 58
8 4 22 11 30 14 41 16 152 73 205 105 33 19 67 38 75 42 8 4 29 16 45 27 17
11 52 32 79 47 62 36 75 43 111 69 17 11 37 24 45 27 8 4 27 15 41 25 63 41
199 122 253 151 33 17 64 35 70 40 15 11 220 115 271 136 87 36 101 42 135 57
19 9 60 24 90 34 30 10 64 24 75 31 11 7 32 13 48 13 16 0 38 5 50 12 22 11
51 19 152 39 28 5 59 14 70 19 11 5 54 12 95 16 41 3 80 10 86 15 33 27 825
27 857 1 7 -6 41 -13 77 -17 36 -4 82 -13 103 -21 20 -8 51 -14 67 -14 16 0
32 -4 35 -10 3 -5 20 -10 36 -10 16 0 46 -7 66 -15 19 -8 45 -15 57 -15 12 0
30 -6 41 -13 11 -8 45 -22 75 -33 30 -10 64 -24 75 -31 11 -7 29 -13 41 -13
12 0 27 -7 34 -15 7 -8 21 -15 31 -15 11 0 27 -4 37 -10 9 -5 35 -16 57 -25
41 -17 129 -62 200 -102 22 -12 49 -27 60 -33 11 -5 43 -23 70 -39 28 -17 70
-42 95 -56 25 -14 59 -34 75 -45 17 -11 39 -24 50 -30 35 -18 89 -52 114 -71
13 -10 27 -19 31 -19 4 0 43 -24 87 -52 43 -29 94 -62 113 -73 90 -50 120 -66
187 -100 40 -19 75 -40 78 -45 3 -6 12 -10 20 -10 14 0 127 -48 177 -76 14 -7
32 -14 40 -14 18 1 176 -49 211 -66 16 -8 41 -14 57 -14 15 0 43 -6 61 -14 19
-7 77 -21 129 -31 52 -9 106 -21 120 -26 35 -12 373 -42 495 -44 55 -1 129 3
165 8 36 5 92 10 126 12 102 4 228 17 239 24 6 3 39 12 75 19 36 7 83 16 105
20 22 5 50 14 62 20 12 7 33 12 47 12 13 0 37 6 53 14 15 8 51 19 78 26 28 6
63 18 79 26 16 8 36 14 45 14 9 0 25 6 36 14 11 7 31 17 45 21 70 21 420 195
515 256 17 10 39 23 50 28 11 5 36 20 55 33 19 12 52 32 73 43 20 11 37 22 37
26 0 4 8 9 18 13 9 3 31 15 47 26 17 11 39 24 50 30 11 5 29 16 40 22 78 51
108 68 226 130 47 25 95 51 105 57 10 6 30 15 44 21 14 5 32 14 40 19 15 9
104 50 165 76 17 7 55 24 85 38 30 14 74 30 97 36 23 6 45 16 48 21 3 6 17 10
31 10 14 0 37 6 52 13 15 8 63 22 107 32 44 10 87 20 95 23 8 3 51 11 95 18
44 7 107 18 140 24 114 21 762 13 805 -10 11 -6 47 -13 82 -16 35 -3 72 -9 83
-14 11 -4 47 -14 80 -20 132 -26 150 -31 159 -40 6 -6 24 -10 41 -10 17 0 39
-6 50 -14 11 -7 31 -16 45 -19 28 -6 79 -23 127 -44 18 -7 47 -20 65 -27 18
-8 58 -26 88 -40 30 -14 63 -26 72 -26 9 0 20 -5 23 -11 4 -5 32 -23 63 -38
87 -42 172 -90 228 -127 28 -19 54 -34 58 -34 4 0 33 -17 64 -37 31 -20 73
-46 92 -56 19 -11 42 -25 51 -33 8 -8 19 -14 23 -14 4 0 33 -17 64 -37 31 -21
64 -41 72 -46 8 -4 29 -16 45 -27 17 -11 37 -23 45 -27 8 -4 42 -23 75 -43 33
-20 92 -51 130 -70 39 -18 77 -37 85 -42 8 -4 22 -11 30 -14 8 -3 38 -17 67
-30 28 -13 58 -24 65 -24 7 0 27 -9 43 -20 17 -11 39 -20 51 -20 11 0 24 -4
30 -9 12 -11 108 -41 131 -41 11 0 28 -7 39 -15 10 -8 33 -15 51 -15 17 0 44
-6 60 -14 15 -8 73 -22 128 -31 55 -9 116 -20 135 -25 51 -14 214 -30 239 -23
12 3 27 0 34 -6 8 -6 57 -13 110 -16 l97 -6 0 1184 0 1185 -47 6 c-27 3 -100
10 -163 15 -63 5 -126 12 -140 16 -14 4 -47 11 -75 16 -110 18 -168 30 -184
38 -9 5 -38 12 -66 15 -50 7 -135 31 -167 47 -10 5 -26 9 -36 9 -10 0 -27 7
-38 15 -10 8 -32 15 -47 15 -16 0 -41 6 -55 14 -15 8 -63 28 -107 46 -112 45
-330 153 -393 195 -30 19 -60 35 -67 35 -7 0 -18 6 -24 14 -7 8 -27 22 -46 31
-19 9 -35 20 -35 25 0 5 -10 12 -22 16 -12 3 -49 25 -82 48 -34 23 -79 53
-101 66 -22 14 -56 35 -75 47 -19 13 -55 34 -80 48 -25 14 -58 34 -75 45 -16
10 -52 30 -80 44 -27 14 -70 36 -95 49 -85 47 -150 77 -164 77 -7 0 -19 7 -26
15 -7 8 -24 15 -39 15 -15 0 -31 4 -37 10 -11 11 -134 58 -189 72 -22 5 -49
13 -60 18 -11 4 -49 15 -85 25 -36 9 -85 23 -110 31 -25 8 -60 14 -79 14 -18
0 -54 7 -80 14 -178 56 -641 79 -881 43 -203 -30 -255 -39 -264 -48 -6 -5 -29
-9 -53 -9 -23 0 -57 -6 -75 -14 -18 -8 -67 -22 -108 -31 -41 -10 -79 -21 -85
-25 -5 -4 -29 -11 -52 -15 -24 -4 -45 -10 -48 -15 -3 -5 -37 -18 -75 -30 -38
-12 -72 -26 -75 -31 -4 -5 -17 -9 -29 -9 -13 0 -29 -7 -36 -15 -7 -8 -18 -15
-25 -15 -17 0 -164 -70 -171 -81 -3 -5 -12 -9 -19 -9 -12 0 -71 -32 -165 -90
-8 -5 -33 -19 -55 -31 -37 -20 -116 -69 -175 -109 -14 -9 -32 -19 -40 -23 -8
-4 -28 -16 -45 -27 -16 -11 -39 -24 -50 -30 -11 -6 -33 -19 -50 -30 -16 -10
-44 -26 -62 -35 -18 -9 -37 -23 -44 -31 -6 -8 -17 -14 -25 -14 -7 0 -30 -12
-51 -26 -21 -14 -60 -37 -88 -50 -27 -14 -78 -40 -111 -58 -34 -18 -73 -36
-88 -40 -14 -3 -26 -11 -26 -16 0 -6 -6 -10 -12 -10 -7 0 -24 -6 -38 -13 -14
-7 -50 -22 -80 -32 -30 -11 -64 -25 -75 -32 -11 -7 -29 -13 -42 -13 -12 0 -24
-4 -27 -9 -3 -5 -39 -19 -78 -30 -40 -12 -82 -26 -93 -30 -36 -15 -107 -32
-260 -63 -118 -24 -190 -32 -335 -37 -210 -8 -580 2 -625 17 -30 11 -121 29
-185 38 -19 3 -54 11 -78 19 -23 8 -53 15 -66 15 -13 0 -37 7 -52 15 -16 8
-36 15 -44 15 -18 0 -77 21 -107 38 -12 7 -28 12 -37 12 -8 0 -27 6 -43 14
-15 8 -44 21 -63 29 -110 47 -277 123 -300 137 -8 6 -28 16 -45 24 -16 7 -54
30 -84 50 -29 20 -59 36 -66 36 -7 0 -18 6 -24 14 -7 8 -26 22 -44 31 -32 16
-63 34 -319 191 -179 110 -201 123 -218 130 -8 3 -31 15 -50 25 -19 11 -47 25
-62 30 -16 6 -28 15 -28 20 0 5 -5 9 -11 9 -6 0 -40 14 -76 30 -35 17 -68 30
-72 30 -5 0 -14 7 -21 15 -7 8 -22 15 -34 15 -12 0 -26 4 -32 10 -11 11 -125
55 -194 75 -25 8 -79 23 -120 35 -41 11 -96 27 -121 35 -26 8 -67 15 -91 15
-24 0 -48 4 -53 9 -15 14 -170 42 -259 47 -44 3 -87 9 -97 15 -22 11 -418 12
-439 0z"/>
<path d="M18455 6831 c-11 -5 -62 -12 -113 -16 -50 -4 -95 -11 -98 -16 -3 -5
-29 -9 -57 -9 -29 0 -64 -7 -79 -14 -16 -8 -49 -18 -74 -22 -26 -4 -70 -16
-98 -27 -28 -11 -68 -22 -88 -24 -21 -3 -42 -11 -49 -19 -6 -8 -19 -14 -29
-14 -16 0 -50 -12 -120 -42 -26 -11 -45 -19 -145 -63 -33 -15 -69 -31 -80 -36
-11 -5 -27 -13 -35 -18 -8 -4 -33 -17 -55 -27 -22 -10 -68 -36 -103 -56 -34
-21 -64 -38 -67 -38 -9 0 -211 -124 -288 -177 -43 -29 -82 -53 -88 -53 -5 0
-9 -4 -9 -9 0 -8 -75 -56 -130 -84 -8 -4 -37 -21 -65 -38 -27 -16 -62 -35 -77
-40 -16 -6 -28 -15 -28 -20 0 -5 -6 -9 -14 -9 -8 0 -43 -14 -77 -31 -74 -35
-101 -47 -189 -84 -36 -15 -78 -33 -93 -41 -16 -8 -39 -14 -51 -14 -12 0 -30
-6 -41 -13 -11 -7 -49 -21 -85 -31 -36 -10 -74 -22 -84 -28 -11 -6 -42 -14
-70 -18 -28 -4 -64 -13 -81 -18 -82 -29 -391 -78 -570 -90 l-100 -7 -3 -105
c-1 -58 -7 -114 -12 -125 -7 -13 -9 -376 -8 -1070 l3 -1050 70 -3 c107 -4 484
29 528 47 16 6 40 11 55 11 15 0 65 12 112 26 47 14 96 28 110 30 14 3 34 10
45 14 11 5 49 19 85 31 36 12 69 25 74 30 6 5 22 9 37 9 15 0 32 7 39 15 7 8
17 15 22 15 6 0 26 7 46 16 21 9 53 23 72 31 65 28 235 113 285 143 28 16 59
34 70 40 11 6 34 19 50 29 17 11 48 29 70 41 22 12 42 26 45 30 3 4 21 16 40
27 19 10 62 37 95 58 33 22 69 45 80 51 68 38 109 61 180 104 115 69 382 200
409 200 7 0 19 7 26 15 7 8 21 15 32 15 11 0 32 6 46 14 15 8 68 26 117 41 50
15 115 35 145 46 30 10 91 25 135 35 44 9 84 20 90 25 5 5 29 9 53 9 24 0 52
5 62 10 28 15 297 40 425 40 131 0 385 -26 399 -40 5 -5 34 -10 62 -10 29 0
55 -4 58 -9 4 -5 30 -12 59 -16 63 -8 189 -40 216 -54 11 -6 33 -11 50 -11 16
0 32 -4 36 -9 3 -5 20 -13 38 -16 53 -11 127 -37 133 -46 3 -5 14 -9 24 -9 10
0 31 -6 47 -14 15 -8 44 -21 63 -30 177 -77 422 -207 517 -273 17 -13 34 -23
37 -23 3 0 24 -13 48 -29 24 -16 61 -39 83 -50 53 -29 79 -45 85 -52 14 -16
266 -159 377 -214 40 -19 75 -40 78 -45 3 -6 13 -10 21 -10 8 0 42 -13 76 -30
33 -17 66 -30 73 -30 7 0 18 -6 24 -14 6 -8 24 -16 39 -19 26 -5 155 -48 197
-66 46 -19 272 -70 313 -71 18 0 43 -5 54 -11 75 -40 1073 -41 1121 0 7 5 37
12 67 15 30 3 80 13 110 22 30 9 78 22 105 28 28 7 57 15 65 19 37 16 168 59
192 64 15 3 33 11 39 19 6 8 17 14 25 14 20 0 192 79 256 118 21 12 43 22 50
22 6 0 19 6 27 14 9 7 48 30 86 50 78 41 77 41 191 113 44 28 99 61 120 73 21
12 53 30 69 40 28 18 58 35 125 72 25 13 87 51 125 76 11 6 27 15 35 18 8 3
22 10 30 15 38 23 279 138 315 150 22 7 47 19 56 26 8 7 23 13 31 13 9 0 41
11 72 25 31 14 64 25 74 25 9 0 30 7 46 15 16 8 47 18 70 21 22 4 46 10 51 15
13 10 82 27 160 41 33 5 64 14 69 19 6 5 30 9 54 9 24 0 52 5 63 11 28 14 290
39 424 39 140 0 319 -17 368 -36 20 -8 51 -14 68 -14 17 0 52 -7 78 -15 25 -8
87 -23 136 -34 133 -30 177 -42 207 -57 14 -8 36 -14 48 -14 22 0 134 -40 183
-65 16 -8 32 -15 37 -15 9 0 97 -39 207 -92 34 -16 78 -40 98 -54 20 -13 40
-24 45 -24 5 0 36 -17 70 -37 95 -58 154 -93 169 -100 8 -4 63 -39 123 -80 60
-40 110 -73 113 -73 3 0 56 -31 117 -69 107 -64 349 -187 448 -226 50 -19 106
-43 132 -56 30 -15 102 -39 118 -39 8 0 28 -7 44 -15 15 -8 39 -15 52 -15 13
0 38 -6 56 -14 37 -16 108 -33 195 -47 32 -5 81 -14 108 -19 28 -5 99 -9 158
-9 60 -1 116 -5 125 -10 9 -5 61 -12 115 -16 l97 -7 0 1175 c0 1062 -2 1175
-16 1181 -9 3 -49 6 -90 6 -42 0 -84 4 -94 10 -10 5 -58 12 -107 16 -48 3 -97
9 -108 14 -11 4 -69 18 -129 29 -59 12 -116 26 -125 30 -9 5 -39 12 -66 15
-27 3 -54 11 -59 16 -6 6 -19 10 -30 10 -12 0 -52 12 -91 26 -38 14 -81 28
-95 31 -14 3 -48 16 -77 29 -28 13 -55 24 -59 24 -6 0 -249 118 -284 138 -8 5
-30 17 -48 26 -61 33 -77 41 -120 69 -23 15 -60 37 -82 48 -22 12 -40 25 -40
30 0 5 -4 9 -9 9 -5 0 -37 17 -71 38 -92 56 -153 91 -175 102 -11 6 -32 18
-46 28 -47 31 -169 106 -217 134 -45 26 -55 31 -84 43 -7 3 -20 9 -28 14 -8 5
-46 24 -85 41 -38 17 -82 38 -97 46 -14 8 -35 14 -45 14 -11 0 -23 3 -27 7
-10 11 -99 43 -117 43 -9 0 -22 6 -28 14 -7 8 -28 16 -49 19 -20 2 -60 13 -87
24 -28 11 -71 23 -95 27 -24 4 -50 12 -56 17 -7 6 -46 14 -86 19 -40 5 -120
17 -178 26 -193 32 -850 21 -935 -16 -11 -5 -49 -11 -84 -14 -35 -3 -69 -10
-75 -15 -6 -5 -33 -14 -61 -20 -122 -25 -137 -29 -148 -40 -6 -6 -22 -11 -35
-11 -13 0 -36 -6 -50 -14 -15 -7 -52 -21 -82 -31 -30 -10 -59 -22 -64 -26 -6
-5 -18 -9 -29 -9 -10 0 -35 -9 -55 -19 -20 -11 -64 -31 -97 -46 -33 -15 -67
-31 -75 -35 -8 -5 -51 -27 -95 -49 -44 -23 -102 -54 -130 -71 -27 -16 -57 -33
-65 -37 -8 -4 -53 -33 -100 -64 -90 -60 -217 -139 -225 -139 -2 0 -21 -12 -42
-26 -21 -14 -47 -30 -58 -35 -11 -5 -33 -18 -50 -29 -16 -11 -37 -23 -45 -26
-8 -3 -41 -19 -72 -35 -114 -59 -274 -138 -320 -158 -27 -12 -67 -30 -91 -41
-24 -11 -48 -20 -55 -20 -6 0 -26 -6 -44 -14 -62 -26 -113 -44 -173 -60 -33
-9 -73 -21 -90 -27 -16 -6 -50 -15 -75 -20 -25 -4 -79 -15 -120 -24 -41 -9
-129 -21 -195 -26 -66 -5 -136 -14 -155 -20 -61 -18 -583 6 -645 31 -11 4 -49
13 -85 20 -132 24 -266 57 -292 71 -10 5 -26 9 -35 9 -21 1 -108 31 -140 48
-12 7 -28 12 -37 12 -8 0 -27 7 -43 15 -15 8 -68 33 -118 56 -170 79 -235 111
-241 120 -3 5 -12 9 -21 9 -9 0 -31 11 -49 25 -18 14 -37 25 -43 25 -5 0 -16
6 -23 13 -13 13 -81 56 -123 77 -11 5 -60 37 -110 70 -49 33 -110 70 -135 82
-25 13 -47 27 -49 31 -2 5 -13 13 -25 18 -11 5 -57 29 -101 54 -44 25 -102 56
-130 70 -53 27 -68 35 -100 53 -11 7 -29 16 -40 21 -11 5 -46 21 -77 35 -31
14 -62 26 -67 26 -6 0 -11 4 -11 10 0 5 -12 12 -27 16 -29 6 -85 28 -115 44
-10 6 -26 10 -35 10 -10 0 -27 7 -37 15 -11 8 -31 15 -44 15 -13 0 -33 5 -45
12 -22 12 -53 20 -148 42 -31 7 -61 16 -67 20 -6 3 -46 11 -89 16 -43 5 -123
17 -178 26 -111 18 -694 30 -730 15z"/>
<path d="M18425 2210 c-11 -5 -43 -9 -71 -9 -28 -1 -68 -8 -87 -16 -20 -8 -59
-15 -87 -15 -28 0 -63 -6 -78 -14 -15 -7 -61 -21 -102 -32 -41 -10 -84 -24
-95 -31 -11 -7 -33 -13 -50 -13 -16 0 -39 -7 -49 -15 -11 -8 -28 -15 -38 -15
-18 0 -25 -3 -86 -33 -19 -9 -40 -17 -49 -17 -8 0 -27 -6 -41 -13 -25 -13 -42
-21 -139 -63 -21 -10 -45 -21 -53 -26 -8 -4 -22 -11 -30 -14 -25 -11 -134 -65
-150 -75 -68 -41 -172 -99 -179 -99 -5 0 -11 -4 -13 -8 -2 -6 -87 -60 -243
-155 -10 -7 -43 -29 -72 -49 -29 -21 -54 -38 -57 -38 -3 0 -45 -23 -93 -51
-48 -28 -95 -54 -103 -59 -20 -11 -201 -97 -270 -128 -30 -14 -68 -31 -83 -38
-16 -8 -39 -14 -51 -14 -12 0 -30 -6 -41 -13 -26 -18 -177 -65 -235 -73 -25
-4 -50 -11 -56 -15 -22 -18 -422 -87 -574 -99 -47 -4 -100 -13 -117 -21 l-33
-13 0 -468 0 -468 7500 0 7500 0 0 470 0 470 -27 6 c-16 3 -35 8 -43 11 -8 3
-42 9 -75 13 -33 5 -78 13 -100 19 -22 6 -68 11 -102 11 -34 0 -64 4 -67 9 -3
4 -34 12 -68 15 -63 8 -162 29 -208 46 -14 5 -37 12 -52 14 -27 5 -71 17 -133
38 -16 5 -45 14 -64 18 -18 5 -38 13 -44 19 -6 6 -23 11 -38 11 -15 0 -32 7
-39 15 -7 8 -18 15 -26 15 -22 0 -276 121 -379 181 -27 16 -63 36 -80 44 -16
9 -43 24 -60 35 -16 11 -37 23 -45 27 -8 3 -33 19 -55 34 -59 40 -278 183
-290 189 -5 3 -21 13 -35 22 -30 20 -131 75 -220 119 -36 17 -72 36 -80 41 -8
4 -26 13 -40 19 -100 45 -132 59 -139 59 -5 0 -22 6 -38 14 -15 8 -46 22 -68
32 -22 9 -48 21 -57 25 -10 5 -25 9 -33 9 -9 0 -26 7 -38 14 -12 8 -37 18 -55
21 -18 3 -41 9 -50 14 -9 5 -53 17 -97 26 -44 9 -92 23 -107 31 -14 8 -49 14
-78 14 -28 0 -61 5 -73 12 -12 6 -69 16 -127 21 -145 13 -621 17 -700 6 -36
-4 -88 -10 -115 -13 -28 -3 -62 -9 -76 -14 -14 -6 -54 -11 -89 -13 -36 -2 -76
-8 -90 -15 -14 -6 -61 -20 -105 -30 -44 -9 -92 -23 -107 -31 -15 -7 -37 -13
-50 -13 -13 0 -32 -7 -42 -15 -11 -8 -27 -15 -36 -15 -16 0 -59 -17 -102 -41
-10 -5 -25 -9 -34 -9 -9 0 -28 -6 -42 -14 -15 -8 -58 -29 -97 -46 -38 -17 -77
-36 -85 -41 -8 -5 -22 -12 -30 -15 -66 -28 -178 -89 -253 -136 -32 -21 -65
-38 -73 -38 -8 0 -14 -3 -14 -8 0 -4 -17 -16 -37 -27 -21 -11 -65 -38 -98 -61
-34 -22 -67 -44 -75 -48 -16 -7 -24 -12 -110 -66 -31 -19 -64 -41 -75 -47 -11
-7 -33 -19 -50 -27 -16 -8 -52 -29 -80 -45 -27 -17 -57 -34 -65 -37 -8 -4 -58
-27 -110 -51 -181 -86 -195 -92 -217 -98 -13 -4 -23 -11 -23 -16 0 -5 -12 -9
-26 -9 -14 0 -38 -6 -52 -14 -32 -17 -173 -62 -234 -76 -23 -5 -99 -23 -168
-41 -69 -17 -168 -35 -220 -40 -52 -5 -104 -13 -115 -18 -49 -22 -248 -31
-391 -18 -77 8 -146 17 -153 21 -6 4 -44 12 -84 16 -75 9 -170 28 -272 56 -33
8 -82 21 -110 28 -27 7 -57 15 -65 18 -8 3 -42 13 -75 23 -33 9 -72 23 -87 31
-14 8 -37 14 -51 14 -13 0 -30 7 -37 15 -7 8 -19 15 -28 15 -18 0 -130 52
-285 132 -12 6 -29 15 -37 19 -80 40 -158 84 -170 94 -8 6 -22 15 -30 18 -8 4
-37 20 -65 37 -27 16 -57 33 -65 37 -8 4 -33 19 -54 35 -21 15 -43 28 -49 28
-5 0 -26 13 -46 29 -38 30 -193 127 -226 142 -11 5 -33 18 -50 29 -16 10 -59
33 -95 50 -36 18 -72 36 -80 41 -45 25 -163 79 -174 79 -8 0 -19 7 -26 15 -7
8 -20 15 -29 15 -18 0 -143 44 -184 65 -16 8 -40 15 -53 15 -14 0 -35 5 -47
12 -12 6 -40 15 -62 19 -22 4 -74 17 -115 29 -41 12 -105 25 -141 29 -36 4
-72 12 -80 17 -8 5 -54 12 -104 17 -138 11 -707 17 -730 7z"/>
</g>
</svg>
