<?xml version="1.0" standalone="no"?>
<!DOCTYPE svg PUBLIC "-//W3C//DTD SVG 20010904//EN"
 "http://www.w3.org/TR/2001/REC-SVG-20010904/DTD/svg10.dtd">
<svg version="1.0" xmlns="http://www.w3.org/2000/svg"
 width="225.000000pt" height="225.000000pt" viewBox="0 0 225.000000 225.000000"
 preserveAspectRatio="xMidYMid meet">

<g transform="translate(0.000000,225.000000) scale(0.100000,-0.100000)"
fill="#000000" stroke="none">
<path d="M320 2151 c-84 -26 -159 -90 -201 -171 l-24 -45 0 -810 0 -810 27
-50 c32 -60 87 -114 148 -146 l45 -24 810 0 810 0 45 24 c61 32 116 86 148
146 l27 50 0 810 0 810 -27 50 c-32 60 -87 114 -148 146 l-45 24 -795 2 c-437
1 -806 -2 -820 -6z m1435 -346 l0 -140 -107 -5 c-141 -7 -142 -7 -142 -142
l-1 -103 125 -5 125 -5 -14 -137 -14 -138 -113 0 -114 0 0 -410 0 -410 -165 0
-165 0 0 410 0 410 -85 0 -85 0 0 140 0 139 83 3 82 3 5 155 c5 128 9 163 26
200 30 65 69 107 126 136 71 36 114 42 283 41 l150 -2 0 -140z"/>
</g>
</svg>
