<?xml version="1.0" encoding="UTF-8"?>
<svg version="1.1" xmlns="http://www.w3.org/2000/svg" width="270" height="187">
<path d="M0 0 C89.1 0 178.2 0 270 0 C270 61.71 270 123.42 270 187 C180.9 187 91.8 187 0 187 C0 125.29 0 63.58 0 0 Z " fill="#FF0000" transform="translate(0,0)"/>
<path d="M0 0 C89.1 0 178.2 0 270 0 C270 61.71 270 123.42 270 187 C180.9 187 91.8 187 0 187 C0 125.29 0 63.58 0 0 Z M62.40234375 2.33203125 C61.07836169 2.41957452 61.07836169 2.41957452 59.72763252 2.50888634 C34.38530999 3.85890662 34.38530999 3.85890662 13.5625 16.95703125 C-7.65913104 44.70431384 0.41084292 106.17522073 4 139 C4.14477783 140.3312793 4.14477783 140.3312793 4.29248047 141.68945312 C5.72497101 153.94912585 8.45957918 165.94828219 18.03515625 174.5390625 C45.62339861 195.05199022 102.89848579 186.20700316 136.2019043 186.24023438 C139.92270811 186.24460095 143.64327769 186.25846564 147.36401367 186.28125 C167.87539488 186.4037986 188.29100699 186.1155428 208.76171875 184.734375 C210.05442153 184.6530621 210.05442153 184.6530621 211.37323952 184.57010651 C234.464707 183.1823507 234.464707 183.1823507 254 172 C275.44273294 147.40257928 268.64172778 91.15098294 266.61021423 61.19264221 C265.27183934 44.01480912 263.69607646 25.37039693 250.9375 12.75 C227.08672327 -7.19081333 170.14004509 0.64867709 140.78149414 0.68432617 C136.65150012 0.68894377 132.52180164 0.6820639 128.3918457 0.66381836 C106.34917543 0.56758161 84.40021466 0.8242965 62.40234375 2.33203125 Z " fill="#FFF7F7" transform="translate(0,0)"/>
<path d="M0 0 C3.84246832 1.53698733 7.07655624 3.08643671 10.62890625 5.1328125 C12.2855127 6.08353638 12.2855127 6.08353638 13.97558594 7.0534668 C15.17126315 7.74391 16.36690018 8.4344228 17.5625 9.125 C18.80092046 9.83731946 20.03953034 10.54930968 21.27832031 11.26098633 C23.20913972 12.37037896 25.13976939 13.48009219 27.06967163 14.59107971 C31.63715368 17.22014056 36.21259778 19.83487335 40.79296875 22.44140625 C42.05591617 23.16063054 43.31885573 23.87986863 44.58178711 24.59912109 C46.39641629 25.63248857 48.21125074 26.66548363 50.02688599 27.69708252 C56.43659504 31.34013492 62.78356079 35.03512475 69 39 C66.50615208 41.79563775 63.74784919 43.43253404 60.49609375 45.265625 C59.37509277 45.90129395 58.2540918 46.53696289 57.09912109 47.19189453 C56.50250671 47.52723206 55.90589233 47.86256958 55.29119873 48.20806885 C53.41643216 49.26184186 51.54494387 50.32122286 49.67431641 51.38232422 C47.7345202 52.48264668 45.79456435 53.58267235 43.8536377 54.68099976 C37.17423796 58.46135591 30.52221672 62.28840992 23.875 66.125 C22.82884521 66.72731445 21.78269043 67.32962891 20.70483398 67.95019531 C15.07409373 71.19840218 9.48967065 74.50256947 3.96533203 77.92919922 C2 79 2 79 0 79 C0 52.93 0 26.86 0 0 Z " fill="#FFFCFC" transform="translate(109,54)"/>
</svg>
